<?xml version="1.0" encoding="utf-8"?>
<!-- Generator: Adobe Illustrator 28.0.0, SVG Export Plug-In . SVG Version: 6.00 Build 0)  -->
<svg version="1.1" id="Capa_2_00000174584374688225455910000006461097576631761309_"
	 xmlns="http://www.w3.org/2000/svg" xmlns:xlink="http://www.w3.org/1999/xlink" x="0px" y="0px" viewBox="0 0 916.3 650.5"
	 style="enable-background:new 0 0 916.3 650.5;" xml:space="preserve">
<style type="text/css">
	.st0{fill:#FFD740;}
	.st1{clip-path:url(#SVGID_00000093170174897712750290000002948272910400242340_);}
	.st2{fill:#FFFFFF;}
	.st3{fill:#EF7D3A;}
	.st4{fill:#E73E26;}
	.st5{fill:url(#SVGID_00000119087322426347974400000007206249837211276685_);}
</style>
<g id="Capa_4">
	<rect class="st0" width="916.3" height="650.5"/>
	<g>
		<g>
			<g>
				<g>
					<defs>
						<rect id="SVGID_1_" width="916.3" height="650.5"/>
					</defs>
					<clipPath id="SVGID_00000080174846000411806260000018047823177101181858_">
						<use xlink:href="#SVGID_1_"  style="overflow:visible;"/>
					</clipPath>
					<g style="clip-path:url(#SVGID_00000080174846000411806260000018047823177101181858_);">
						<g>
							<g>
								<path class="st2" d="M60.8,324.3c-2.6-1.3-5.7-0.2-7,2.4s-0.2,5.7,2.4,7l19.7,9.6c1.3,0.6,2.7,0.7,4,0.2
									c1.3-0.4,2.3-1.4,3-2.6c1.3-2.6,0.2-5.7-2.4-7L60.8,324.3L60.8,324.3z"/>
								<path class="st2" d="M60.5,296.7c-2.6-1.3-5.7-0.2-7,2.4s-0.2,5.7,2.4,7l41.9,20.4c1.3,0.6,2.7,0.7,4,0.2s2.3-1.4,3-2.6
									c1.3-2.6,0.2-5.7-2.4-7L60.5,296.7L60.5,296.7z"/>
								<path class="st2" d="M224.9,202.3c-26,9-42.7,32.8-43.9,58.7c-8.7-1.9-19.1-1.1-30.2,2.7c-11.1,3.8-19.8,9.6-25.5,16.5
									C108.4,260.5,80.6,252,54.5,261c-34,11.7-52.1,48.8-40.4,82.9S62.9,396,97,384.3s51.5-47.7,40.9-81.3
									c-0.1-0.4-0.2-0.9-0.3-1.3c-2.5-7.3,8-15.7,19.5-19.7c6.9-2.4,13.9-3.2,19.3-2.2c6.6,1.2,7.8,4.6,8.2,5.7
									c0.1,0.3,0.2,0.6,0.4,1c12.2,33.2,48.8,50.7,82.4,39.1c34-11.7,52.1-48.8,40.4-82.9C296.1,208.7,259,190.6,224.9,202.3
									L224.9,202.3z M90.7,366c-23.9,8.2-50-4.5-58.3-28.4s4.5-50,28.4-58.3c23.9-8.2,50,4.5,58.3,28.4S114.6,357.8,90.7,366z
									 M261.1,307.3c-23.9,8.2-50-4.5-58.3-28.4c-8.2-23.9,4.5-50,28.4-58.3c23.9-8.2,50,4.5,58.3,28.4S285,299.1,261.1,307.3z"/>
								<path class="st2" d="M231.1,265.6c-2.6-1.3-5.7-0.2-7,2.4s-0.2,5.7,2.4,7l19.7,9.6c1.3,0.6,2.7,0.7,4,0.2
									c1.3-0.4,2.4-1.4,3-2.6c1.3-2.6,0.2-5.7-2.4-7L231.1,265.6L231.1,265.6z"/>
								<path class="st2" d="M230.9,238.1c-2.6-1.3-5.7-0.2-7,2.4c-1.3,2.6-0.2,5.7,2.4,7l41.8,20.4c1.3,0.6,2.7,0.7,4,0.2
									s2.4-1.4,3-2.6c1.3-2.6,0.2-5.7-2.4-7L230.9,238.1L230.9,238.1z"/>
								<path class="st2" d="M218.8,178.3c12.8-4,26.6-5.4,39.8-2.5c13.8,2.9,27,9.9,36.8,20.3c-9.5-16.5-26.2-28.8-44.5-34.4
									c-11.5-3.6-23.7-4.6-35.8-3.8c-6.8,0.2-11.7,7.2-9.5,13.6C207.4,176.9,213.3,180,218.8,178.3L218.8,178.3z"/>
								<path class="st2" d="M22.6,267.2c8.9-8.1,16-18.2,21.4-29c3.2-6-0.3-13.7-7-15.1c-5.7-1.3-11.3,2.3-12.6,7.9
									c-3,13.1-8.8,25.7-17.9,35.6c-9.4,10.4-22.1,18.3-36.1,21.6C-10.5,288.4,8.5,280.2,22.6,267.2L22.6,267.2z"/>
								<path class="st2" d="M178.2,343.5c-19.1,6.6-29.3,27.5-22.7,46.5s27.4,29.3,46.5,22.7c19.1-6.6,29.3-27.5,22.7-46.5
									S197.3,336.9,178.2,343.5L178.2,343.5z M198.2,401.5c-12.9,4.4-27-2.4-31.4-15.3s2.4-27,15.3-31.4
									c12.9-4.4,27,2.4,31.4,15.3S211.1,397,198.2,401.5L198.2,401.5z"/>
							</g>
							<g>
								<path class="st3" d="M617.9,210.4c-1.8-0.9-3.9-0.1-4.8,1.6c-0.9,1.8-0.1,3.9,1.6,4.8l13.4,6.6c0.9,0.4,1.9,0.5,2.7,0.2
									c0.9-0.3,1.6-0.9,2-1.8c0.9-1.8,0.1-3.9-1.6-4.8L617.9,210.4L617.9,210.4z"/>
								<path class="st3" d="M617.8,191.6c-1.8-0.9-3.9-0.1-4.8,1.6c-0.9,1.8-0.1,3.9,1.6,4.8l28.6,13.9c0.9,0.4,1.9,0.5,2.7,0.2
									c0.9-0.3,1.6-0.9,2-1.8c0.9-1.8,0.1-3.9-1.6-4.8L617.8,191.6L617.8,191.6z"/>
								<path class="st3" d="M730,127.2c-17.8,6.1-29.2,22.4-30,40.1c-5.9-1.3-13-0.7-20.6,1.9c-7.6,2.6-13.5,6.6-17.4,11.2
									c-11.5-13.5-30.5-19.2-48.3-13.1c-23.2,8-35.6,33.3-27.6,56.6c8,23.2,33.3,35.6,56.6,27.6c22.9-7.9,35.2-32.5,27.9-55.5
									c-0.1-0.3-0.1-0.6-0.2-0.9c-1.7-5,5.4-10.7,13.3-13.4c4.7-1.6,9.5-2.2,13.2-1.5c4.5,0.8,5.3,3.1,5.6,3.9
									c0.1,0.2,0.2,0.4,0.3,0.6c8.3,22.6,33.3,34.6,56.2,26.7c23.2-8,35.6-33.3,27.6-56.6C778.5,131.5,753.2,119.2,730,127.2
									L730,127.2z M638.4,238.9c-16.3,5.6-34.1-3.1-39.8-19.4c-5.6-16.3,3.1-34.1,19.4-39.8c16.3-5.6,34.1,3.1,39.8,19.4
									C663.4,215.5,654.7,233.3,638.4,238.9z M754.6,198.8c-16.3,5.6-34.1-3.1-39.8-19.4c-5.6-16.3,3.1-34.1,19.4-39.8
									c16.3-5.6,34.1,3.1,39.8,19.4C779.7,175.4,771,193.2,754.6,198.8z"/>
								<path class="st3" d="M734.2,170.4c-1.8-0.9-3.9-0.1-4.8,1.6c-0.9,1.8-0.1,3.9,1.6,4.8l13.4,6.6c0.9,0.4,1.9,0.5,2.7,0.2
									s1.6-0.9,2-1.8c0.9-1.8,0.1-3.9-1.6-4.8L734.2,170.4L734.2,170.4z"/>
								<path class="st3" d="M734,151.6c-1.8-0.9-3.9-0.1-4.8,1.6c-0.9,1.8-0.1,3.9,1.6,4.8l28.6,13.9c0.9,0.4,1.9,0.5,2.7,0.2
									s1.6-0.9,2-1.8c0.9-1.8,0.1-3.9-1.6-4.8L734,151.6L734,151.6z"/>
								<path class="st3" d="M725.8,110.8c8.7-2.8,18.2-3.7,27.2-1.7c9.4,2,18.4,6.8,25.1,13.9c-6.5-11.3-17.8-19.7-30.3-23.5
									c-7.9-2.5-16.2-3.2-24.4-2.6c-4.6,0.2-8,4.9-6.5,9.3C718,109.9,722,112,725.8,110.8L725.8,110.8z"/>
								<path class="st3" d="M591.9,171.5c6.1-5.6,10.9-12.4,14.6-19.8c2.2-4.1-0.2-9.4-4.8-10.3c-3.9-0.9-7.7,1.5-8.6,5.4
									c-2,8.9-6,17.5-12.2,24.3c-6.4,7.1-15.1,12.5-24.6,14.7C569.3,185.9,582.3,180.3,591.9,171.5L591.9,171.5z"/>
								<path class="st3" d="M698.1,223.5c-13,4.5-20,18.7-15.5,31.8c4.5,13.1,18.7,20,31.8,15.5c13-4.5,20-18.7,15.5-31.8
									S711.2,219,698.1,223.5L698.1,223.5z M711.8,263.1c-8.8,3-18.4-1.7-21.4-10.5c-3-8.8,1.7-18.4,10.5-21.4s18.4,1.7,21.4,10.5
									C725.2,250.4,720.6,260.1,711.8,263.1z"/>
							</g>
							<g>
								<path class="st2" d="M364.7,591.1c-2.2-1-4.8-0.2-5.8,2s-0.2,4.8,2,5.8l16.5,8c1.1,0.5,2.3,0.6,3.3,0.2c1-0.4,2-1.1,2.5-2.2
									c1-2.2,0.2-4.8-2-5.8L364.7,591.1L364.7,591.1z"/>
								<path class="st2" d="M364.5,568.1c-2.2-1-4.8-0.2-5.8,2s-0.2,4.8,2,5.8l35,17c1.1,0.5,2.3,0.6,3.3,0.2s2-1.1,2.5-2.2
									c1-2.2,0.2-4.8-2-5.8L364.5,568.1L364.5,568.1z"/>
								<path class="st2" d="M501.9,489.3c-21.8,7.5-35.7,27.4-36.7,49c-7.3-1.6-16-0.9-25.2,2.3c-9.3,3.2-16.6,8-21.3,13.8
									c-14.1-16.5-37.4-23.6-59.1-16.1c-28.5,9.8-43.6,40.8-33.8,69.2c9.8,28.5,40.8,43.6,69.2,33.8c28-9.6,43.1-39.8,34.2-67.9
									c-0.1-0.4-0.2-0.7-0.3-1.1c-2.1-6.1,6.6-13.1,16.3-16.5c5.8-2,11.6-2.7,16.1-1.8c5.5,1,6.5,3.8,6.8,4.8
									c0.1,0.3,0.2,0.5,0.3,0.8c10.2,27.7,40.8,42.3,68.8,32.7c28.5-9.8,43.6-40.8,33.8-69.2S530.3,479.5,501.9,489.3L501.9,489.3
									z M389.7,626c-20,6.9-41.8-3.7-48.7-23.7c-6.9-20,3.7-41.8,23.7-48.7s41.8,3.7,48.7,23.7C420.3,597.3,409.7,619.1,389.7,626
									z M532.1,577c-20,6.9-41.8-3.7-48.7-23.7c-6.9-20,3.7-41.8,23.7-48.7c20-6.9,41.8,3.7,48.7,23.7S552.1,570.1,532.1,577z"/>
								<path class="st2" d="M507,542.1c-2.2-1-4.8-0.2-5.8,2s-0.2,4.8,2,5.8l16.4,8c1.1,0.5,2.3,0.6,3.3,0.2c1-0.4,2-1.1,2.5-2.2
									c1-2.2,0.2-4.8-2-5.8L507,542.1L507,542.1z"/>
								<path class="st2" d="M506.8,519.1c-2.2-1-4.8-0.2-5.8,2s-0.2,4.8,2,5.8l35,17c1.1,0.5,2.3,0.6,3.3,0.2c1-0.4,2-1.1,2.5-2.2
									c1-2.2,0.2-4.8-2-5.8L506.8,519.1L506.8,519.1z"/>
								<path class="st2" d="M496.7,469.1c10.7-3.4,22.2-4.5,33.2-2.1c11.5,2.4,22.5,8.3,30.8,17c-8-13.8-21.8-24.1-37.2-28.8
									c-9.6-3-19.8-3.9-29.9-3.2c-5.6,0.2-9.8,6-8,11.4C487.2,468,492.1,470.6,496.7,469.1L496.7,469.1z"/>
								<path class="st2" d="M332.8,543.5c7.5-6.8,13.3-15.2,17.9-24.2c2.7-5-0.3-11.5-5.8-12.6c-4.7-1.1-9.4,1.9-10.5,6.6
									c-2.5,10.9-7.3,21.4-14.9,29.8c-7.9,8.7-18.5,15.3-30.2,18C305.2,561.1,321.1,554.3,332.8,543.5L332.8,543.5z"/>
								<path class="st2" d="M462.8,607.2c-16,5.5-24.5,22.9-19,38.9s22.9,24.5,38.9,19s24.5-22.9,19-38.9S478.8,601.7,462.8,607.2
									L462.8,607.2z M479.5,655.6c-10.8,3.7-22.5-2-26.2-12.8s2-22.5,12.8-26.2s22.5,2,26.2,12.8
									C496,640.2,490.3,651.9,479.5,655.6z"/>
							</g>
							<g>
								<path class="st3" d="M438.1,425.3c1.6-0.8,3.6-0.1,4.4,1.5s0.1,3.6-1.5,4.4l-12.4,6c-0.8,0.4-1.7,0.4-2.5,0.1
									s-1.5-0.9-1.9-1.7c-0.8-1.6-0.1-3.6,1.5-4.4L438.1,425.3z"/>
								<path class="st3" d="M438.3,408c1.6-0.8,3.6-0.1,4.4,1.5s0.1,3.6-1.5,4.4l-26.3,12.8c-0.8,0.4-1.7,0.4-2.5,0.1
									s-1.5-0.9-1.9-1.7c-0.8-1.6-0.1-3.6,1.5-4.4L438.3,408z"/>
								<path class="st3" d="M283,374.1c-7.4,21.4,4,44.7,25.4,52c21.1,7.3,44.1-3.7,51.7-24.6c0.1-0.2,0.2-0.4,0.2-0.6
									c0.2-0.7,1-2.8,5.1-3.6c3.4-0.6,7.8-0.1,12.1,1.4c7.3,2.5,13.8,7.8,12.2,12.4c-0.1,0.3-0.2,0.5-0.2,0.8
									c-6.7,21.1,4.7,43.8,25.7,51c21.4,7.4,44.7-4,52-25.4s-4-44.7-25.4-52c-16.4-5.6-33.8-0.3-44.4,12.1c-3.6-4.3-9-8-16-10.4
									s-13.5-2.9-19-1.7c-0.7-16.3-11.2-31.2-27.6-36.9C313.6,341.4,290.3,352.8,283,374.1L283,374.1z M401.5,414.9
									c5.2-15,21.5-23,36.6-17.8c15,5.2,23,21.5,17.8,36.6s-21.5,23-36.6,17.8S396.3,430,401.5,414.9L401.5,414.9z M294.5,378.1
									c5.2-15,21.5-23,36.6-17.8s23,21.5,17.8,36.6c-5.2,15-21.5,23-36.6,17.8S289.3,393.1,294.5,378.1L294.5,378.1z"/>
								<path class="st3" d="M331.1,388.5c1.6-0.8,3.6-0.1,4.4,1.5s0.1,3.6-1.5,4.4l-12.4,6c-0.8,0.4-1.7,0.4-2.5,0.1
									s-1.5-0.9-1.9-1.7c-0.8-1.6-0.1-3.6,1.5-4.4L331.1,388.5z"/>
								<path class="st3" d="M331.3,371.2c1.6-0.8,3.6-0.1,4.4,1.5s0.1,3.6-1.5,4.4l-26.3,12.8c-0.8,0.4-1.7,0.4-2.5,0.1
									s-1.5-0.9-1.9-1.7c-0.8-1.6-0.1-3.6,1.5-4.4L331.3,371.2z"/>
								<path class="st3" d="M338.9,333.6c-8-2.5-16.7-3.4-25-1.6c-8.6,1.8-16.9,6.2-23.1,12.8c6-10.4,16.4-18.1,27.9-21.6
									c7.2-2.3,14.9-2.9,22.5-2.4c4.2,0.1,7.3,4.5,6,8.6C346,332.8,342.3,334.7,338.9,333.6L338.9,333.6z"/>
								<path class="st3" d="M462,389.5c-5.6-5.1-10-11.4-13.4-18.2c-2-3.7,0.2-8.6,4.4-9.5c3.5-0.8,7.1,1.4,7.9,5
									c1.9,8.2,5.5,16.1,11.2,22.4c5.9,6.5,13.9,11.5,22.7,13.5C482.8,402.8,470.9,397.6,462,389.5L462,389.5z"/>
								<path class="st3" d="M335.1,451.6c-4.1,12,2.3,25.1,14.2,29.2c12,4.1,25.1-2.3,29.2-14.2c4.1-12-2.3-25.1-14.2-29.2
									C352.3,433.2,339.2,439.6,335.1,451.6z M342.2,454c2.8-8.1,11.6-12.4,19.7-9.6s12.4,11.6,9.6,19.7s-11.6,12.4-19.7,9.6
									C343.7,471,339.4,462.1,342.2,454z"/>
							</g>
							<g>
								<path class="st2" d="M929.4,288c1.5-0.7,3.3-0.1,4,1.4s0.1,3.3-1.4,4L908.1,305c-0.7,0.4-1.5,0.4-2.3,0.1s-1.3-0.8-1.7-1.5
									c-0.7-1.5-0.1-3.3,1.4-4L929.4,288L929.4,288z"/>
								<path class="st2" d="M788.2,257.1c-6.7,19.5,3.6,40.6,23.1,47.3c19.2,6.6,40.1-3.4,47.1-22.3c0.1-0.2,0.2-0.4,0.2-0.5
									c0.2-0.6,0.9-2.5,4.7-3.2c3.1-0.6,7.1-0.1,11,1.2c6.6,2.3,12.6,7.1,11.2,11.2c-0.1,0.2-0.1,0.5-0.2,0.7
									c-6.1,19.2,4.2,39.8,23.4,46.4c19.5,6.7,40.6-3.6,47.3-23.1s-3.6-40.6-23.1-47.3c-14.9-5.1-30.8-0.3-40.4,11
									c-3.2-3.9-8.2-7.2-14.6-9.4c-6.3-2.2-12.3-2.6-17.3-1.6c-0.7-14.8-10.2-28.4-25.1-33.5C816,227.3,794.8,237.7,788.2,257.1
									L788.2,257.1z M895.9,294.3c4.7-13.7,19.6-20.9,33.3-16.2s20.9,19.6,16.2,33.3c-4.7,13.7-19.6,20.9-33.3,16.2
									C898.5,322.8,891.2,307.9,895.9,294.3L895.9,294.3z M798.6,260.8c4.7-13.7,19.6-20.9,33.3-16.2s20.9,19.6,16.2,33.3
									s-19.6,20.9-33.3,16.2C801.2,289.3,793.9,274.4,798.6,260.8z"/>
								<path class="st2" d="M831.9,270.2c1.5-0.7,3.3-0.1,4,1.4s0.1,3.3-1.4,4l-11.2,5.5c-0.7,0.4-1.5,0.4-2.3,0.1
									s-1.3-0.8-1.7-1.5c-0.7-1.5-0.1-3.3,1.4-4L831.9,270.2L831.9,270.2z"/>
								<path class="st2" d="M832.1,254.5c1.5-0.7,3.3-0.1,4,1.4s0.1,3.3-1.4,4l-23.9,11.7c-0.7,0.4-1.5,0.4-2.3,0.1
									s-1.3-0.8-1.7-1.5c-0.7-1.5-0.1-3.3,1.4-4L832.1,254.5L832.1,254.5z"/>
								<path class="st2" d="M839,220.3c-7.3-2.3-15.2-3.1-22.7-1.4c-7.8,1.7-15.4,5.6-21,11.6c5.4-9.4,14.9-16.5,25.4-19.7
									c6.6-2.1,13.5-2.6,20.4-2.2c3.9,0.1,6.7,4.1,5.4,7.8C845.5,219.6,842.2,221.3,839,220.3L839,220.3z"/>
								<path class="st2" d="M835.6,327.6c-3.8,10.9,2.1,22.8,13,26.6s22.8-2.1,26.6-13s-2.1-22.8-13-26.6
									C851.2,310.9,839.3,316.7,835.6,327.6z M842,329.9c2.5-7.4,10.6-11.3,17.9-8.8s11.3,10.6,8.8,17.9s-10.6,11.3-17.9,8.8
									S839.5,337.2,842,329.9z"/>
							</g>
							<g>
								<path class="st3" d="M942.2,572.3c2.3-1.1,5-0.2,6.1,2.1s0.2,5-2.1,6.1l-36.5,17.8c-1.1,0.5-2.4,0.6-3.5,0.2
									s-2.1-1.2-2.6-2.3c-1.1-2.3-0.2-5,2.1-6.1L942.2,572.3L942.2,572.3z"/>
								<path class="st3" d="M726.2,525.2c-10.2,29.7,5.6,62.1,35.3,72.4c29.3,10.1,61.3-5.2,71.9-34.2c0.1-0.3,0.2-0.5,0.3-0.8
									c0.3-1,1.3-3.9,7.1-5c4.7-0.9,10.8-0.2,16.9,1.9c10.1,3.5,19.2,10.9,17,17.2c-0.1,0.4-0.2,0.8-0.3,1.1
									c-9.3,29.3,6.5,60.9,35.7,70.9c29.7,10.2,62.1-5.6,72.4-35.3s-5.6-62.1-35.3-72.4c-22.7-7.8-47-0.4-61.8,16.8
									c-5-6-12.6-11-22.3-14.4c-9.7-3.3-18.8-4-26.4-2.4c-1-22.6-15.6-43.4-38.3-51.2C768.9,479.7,736.5,495.5,726.2,525.2
									L726.2,525.2z M891,582c7.2-20.9,30-32,50.9-24.8s32,30,24.8,50.9s-30,32-50.9,24.8C894.9,625.6,883.8,602.9,891,582z
									 M742.2,530.8c7.2-20.9,30-32,50.9-24.8s32,30,24.8,50.9s-30,32-50.9,24.8C746.1,574.4,735,551.7,742.2,530.8z"/>
								<path class="st3" d="M793.2,545.2c2.3-1.1,5-0.2,6.1,2.1s0.2,5-2.1,6.1l-17.2,8.4c-1.1,0.5-2.4,0.6-3.5,0.2
									s-2.1-1.2-2.6-2.3c-1.1-2.3-0.2-5,2.1-6.1L793.2,545.2L793.2,545.2z"/>
								<path class="st3" d="M793.4,521.1c2.3-1.1,5-0.2,6.1,2.1s0.2,5-2.1,6.1l-36.5,17.8c-1.1,0.5-2.4,0.6-3.5,0.2
									s-2.1-1.2-2.6-2.3c-1.1-2.3-0.2-5,2.1-6.1L793.4,521.1L793.4,521.1z"/>
								<path class="st3" d="M804,468.9c-11.2-3.5-23.2-4.7-34.7-2.2c-12,2.5-23.5,8.6-32.1,17.7c8.3-14.4,22.8-25.2,38.8-30.1
									c10.1-3.1,20.7-4,31.2-3.4c5.9,0.2,10.2,6.3,8.3,11.9C813.9,467.8,808.8,470.5,804,468.9L804,468.9z"/>
								<path class="st3" d="M798.7,633c-5.7,16.7,3.2,34.9,19.8,40.6s34.9-3.2,40.6-19.8s-3.2-34.9-19.8-40.6
									S804.4,616.3,798.7,633z M808.5,636.4c3.9-11.2,16.2-17.2,27.4-13.4s17.2,16.2,13.4,27.4c-3.9,11.2-16.2,17.2-27.4,13.4
									C810.7,659.9,804.7,647.6,808.5,636.4z"/>
							</g>
							<g>
								<path class="st2" d="M528.9,276.4c-0.6-1.2-2-1.7-3.2-1.1s-1.7,2-1.1,3.2l4.4,9c0.3,0.6,0.8,1,1.4,1.2s1.2,0.2,1.8-0.1
									c1.2-0.6,1.7-2,1.1-3.2L528.9,276.4z"/>
								<path class="st2" d="M536.6,266.4c-0.6-1.2-2-1.7-3.2-1.1s-1.7,2-1.1,3.2l9.3,19.1c0.3,0.6,0.8,1,1.4,1.2s1.2,0.2,1.8-0.1
									c1.2-0.6,1.7-2,1.1-3.2L536.6,266.4z"/>
								<path class="st2" d="M458.3,252c-0.6-1.2-2-1.7-3.2-1.1c-1.2,0.6-1.7,2-1.1,3.2l4.4,9c0.3,0.6,0.8,1,1.4,1.2
									s1.2,0.2,1.8-0.1c1.2-0.6,1.7-2,1.1-3.2L458.3,252z"/>
								<path class="st2" d="M466,242c-0.6-1.2-2-1.7-3.2-1.1c-1.2,0.6-1.7,2-1.1,3.2l9.3,19.1c0.3,0.6,0.8,1,1.4,1.2
									s1.2,0.2,1.8-0.1c1.2-0.6,1.7-2,1.1-3.2L466,242z"/>
								<path class="st2" d="M581.2,249.9c-3.1-4.5-7.2-8.4-11.8-11.5c-2.5-1.8-6.2-0.7-7.3,2.2c-0.9,2.5,0.3,5.3,2.8,6.2
									c5.7,2.1,11.1,5.6,15,10.3c4.1,4.9,6.9,11.2,7.6,17.7C588.8,266.2,586.2,257.1,581.2,249.9L581.2,249.9z"/>
								<path class="st2" d="M472.7,209.9c1-2.9-1.3-6.1-4.4-6.2c-5.5-0.4-11.1,0.1-16.4,1.8c-8.4,2.6-16,8.2-20.3,15.8
									c4.5-4.8,10.6-8,16.9-9.3c6-1.3,12.4-0.7,18.2,1.1C469.2,213.8,471.9,212.4,472.7,209.9L472.7,209.9z"/>
								<path class="st2" d="M565.8,259.1l-40.5-13.9c-4.4-1.5-9.1,0.8-10.6,5.2l-5.5,16l-14.3-4.9l5.5-16c1.5-4.4-0.8-9.1-5.2-10.6
									L454.7,221c-4.4-1.5-9.1,0.8-10.6,5.2l-14,40.5c-1.5,4.4,0.8,9.1,5.2,10.6l40.5,14c4.4,1.5,9.1-0.8,10.6-5.2l5.1-14.9
									l14.3,4.9l-5.1,14.9c-1.5,4.4,0.8,9.1,5.2,10.6l40.5,14c4.4,1.5,9.1-0.8,10.6-5.2l14-40.5
									C572.5,265.4,570.2,260.6,565.8,259.1z M480.9,274.7c-1.5,4.4-6.2,6.7-10.6,5.2l-23.8-8.2c-4.4-1.5-6.7-6.2-5.2-10.6
									l8.2-23.8c1.5-4.4,6.2-6.7,10.6-5.2l23.8,8.2c4.4,1.5,6.7,6.2,5.2,10.6L480.9,274.7L480.9,274.7z M551.5,299
									c-1.5,4.4-6.2,6.7-10.6,5.2l-23.8-8.2c-4.4-1.5-6.7-6.2-5.2-10.6l8.2-23.8c1.5-4.4,6.2-6.7,10.6-5.2l23.8,8.2
									c4.4,1.5,6.7,6.2,5.2,10.6L551.5,299z"/>
								<path class="st2" d="M496.1,310.1c-1.7,4.9-7,7.5-11.9,5.8s-7.5-7-5.8-11.9l0.6-1.9l-8.9-3.1l-0.6,1.9
									c-3.4,9.8,1.9,20.5,11.6,23.8c9.8,3.4,20.5-1.9,23.8-11.6l0.6-1.9l-8.9-3.1L496.1,310.1L496.1,310.1z"/>
							</g>
							<g>
								<path class="st3" d="M157.3,90.4c-0.8-1.7-2.8-2.4-4.5-1.6s-2.4,2.8-1.6,4.5l6.2,12.7c0.4,0.8,1.1,1.4,1.9,1.7
									c0.8,0.3,1.7,0.2,2.6-0.2c1.7-0.8,2.4-2.8,1.6-4.5C163.5,103.1,157.3,90.4,157.3,90.4z"/>
								<path class="st3" d="M168.1,76.2c-0.8-1.7-2.8-2.4-4.5-1.6s-2.4,2.8-1.6,4.5l13.2,27c0.4,0.8,1.1,1.4,1.9,1.7
									s1.7,0.2,2.6-0.2c1.7-0.8,2.4-2.8,1.6-4.5L168.1,76.2L168.1,76.2z"/>
								<path class="st3" d="M57.5,56c-0.8-1.7-2.8-2.4-4.5-1.5c-1.7,0.8-2.4,2.8-1.5,4.5l6.2,12.7c0.4,0.8,1.1,1.4,1.9,1.7
									s1.7,0.2,2.6-0.2c1.7-0.8,2.4-2.8,1.5-4.5C63.8,68.8,57.5,56,57.5,56z"/>
								<path class="st3" d="M68.4,41.9c-0.8-1.7-2.8-2.4-4.5-1.5s-2.4,2.8-1.5,4.5l13.2,27c0.4,0.8,1.1,1.4,1.9,1.7
									s1.7,0.2,2.6-0.2c1.7-0.8,2.4-2.8,1.6-4.5C81.6,68.9,68.4,41.9,68.4,41.9z"/>
								<path class="st3" d="M231.1,53c-4.4-6.4-10.2-11.8-16.7-16.2c-3.5-2.6-8.8-1-10.3,3.2c-1.3,3.5,0.5,7.4,4,8.7
									c8.1,3,15.7,7.8,21.2,14.5c5.8,6.9,9.8,15.8,10.7,25C241.7,76.1,238.2,63.2,231.1,53L231.1,53z"/>
								<path class="st3" d="M77.9-3.5c1.4-4.2-1.8-8.7-6.2-8.8c-7.8-0.5-15.7,0.2-23.1,2.5C36.8-6.2,26.1,1.8,19.9,12.4
									C26.3,5.7,34.8,1.2,43.7-0.7c8.5-1.8,17.5-1,25.7,1.6C73,2.1,76.8,0.1,77.9-3.5z"/>
								<path class="st3" d="M209.4,66.1l-57.2-19.7c-6.1-2.1-12.9,1.2-15,7.3l-7.8,22.5l-20.2-7l7.8-22.5c2.1-6.2-1.2-12.9-7.3-15
									L52.4,12c-6.2-2.1-12.9,1.1-15,7.3L17.7,76.6c-2.1,6.2,1.1,12.9,7.3,15l57.2,19.7c6.2,2.1,12.9-1.2,15-7.3l7.2-21l20.2,7
									l-7.2,21c-2.1,6.2,1.2,12.9,7.3,15l57.2,19.7c6.1,2.1,12.9-1.1,15-7.3L216.7,81C218.8,74.9,215.5,68.2,209.4,66.1
									L209.4,66.1z M89.5,88c-2.1,6.2-8.8,9.4-15,7.3L41,83.8c-6.2-2.1-9.4-8.8-7.3-15l11.5-33.5c2.1-6.1,8.8-9.4,15-7.3
									l33.6,11.6c6.2,2.1,9.4,8.8,7.3,15C101,54.5,89.5,88,89.5,88z M189.2,122.4c-2.1,6.1-8.8,9.4-15,7.3l-33.6-11.6
									c-6.1-2.1-9.4-8.8-7.3-15l11.6-33.6c2.1-6.2,8.8-9.4,15-7.3l33.6,11.5c6.1,2.1,9.4,8.8,7.3,15L189.2,122.4z"/>
								<path class="st3" d="M110.9,138c-2.4,6.9-9.9,10.5-16.7,8.2c-6.9-2.4-10.5-9.9-8.2-16.7l0.9-2.6l-12.6-4.3l-0.9,2.6
									c-4.8,13.8,2.6,28.9,16.4,33.6s28.9-2.6,33.6-16.4l0.9-2.6l-12.6-4.3L110.9,138L110.9,138z"/>
							</g>
							<g>
								<path class="st4" d="M159.8,578.8c-0.9-1.9-3.3-2.8-5.2-1.8s-2.8,3.3-1.8,5.2L160,597c0.5,1,1.3,1.7,2.2,2s2,0.3,3-0.2
									c1.9-1,2.8-3.3,1.8-5.2L159.8,578.8L159.8,578.8z"/>
								<path class="st4" d="M172.4,562.3c-0.9-1.9-3.3-2.8-5.2-1.8s-2.8,3.3-1.8,5.2l15.3,31.5c0.5,1,1.3,1.7,2.2,2s2,0.3,3-0.2
									c1.9-1,2.8-3.3,1.8-5.2L172.4,562.3L172.4,562.3z"/>
								<path class="st4" d="M43.8,538.8c-1-1.9-3.3-2.8-5.2-1.8s-2.8,3.3-1.8,5.2L44,557c0.5,1,1.3,1.7,2.2,2s2,0.3,3-0.2
									c1.9-1,2.8-3.3,1.8-5.2L43.8,538.8L43.8,538.8z"/>
								<path class="st4" d="M56.3,522.4c-1-1.9-3.3-2.8-5.2-1.8s-2.8,3.3-1.8,5.2l15.3,31.5c0.5,1,1.3,1.7,2.2,2s2,0.3,3-0.2
									c1.9-1,2.8-3.3,1.8-5.2L56.3,522.4L56.3,522.4z"/>
								<path class="st4" d="M245.6,535.3c-5.2-7.5-11.9-13.7-19.4-18.8c-4.1-3-10.2-1.1-12,3.7c-1.5,4.1,0.5,8.6,4.6,10.2
									c9.4,3.5,18.2,9.1,24.7,16.9c6.8,8.1,11.4,18.3,12.4,29C258,562.1,253.9,547.1,245.6,535.3L245.6,535.3z"/>
								<path class="st4" d="M67.5,469.6c1.6-4.8-2.1-10.1-7.2-10.3c-9.1-0.6-18.2,0.2-26.9,2.9C19.7,466.4,7.2,475.7,0,488.1
									c7.4-7.8,17.3-13.1,27.7-15.3c9.9-2.1,20.3-1.1,29.9,1.9C61.7,476.1,66.1,473.7,67.5,469.6L67.5,469.6z"/>
								<path class="st4" d="M220.4,550.5l-66.6-22.9c-7.2-2.5-15,1.3-17.4,8.5l-9,26.2l-23.5-8.1l9-26.2c2.5-7.2-1.3-15-8.5-17.4
									l-66.6-22.9c-7.2-2.5-15,1.3-17.4,8.5l-22.9,66.5c-2.5,7.2,1.3,15,8.5,17.4L72.5,603c7.2,2.5,15-1.3,17.4-8.5l8.4-24.4
									l23.5,8.1l-8.4,24.4c-2.5,7.2,1.3,15,8.5,17.4l66.5,22.9c7.2,2.5,15-1.3,17.4-8.5l22.9-66.5
									C231.3,560.7,227.5,552.9,220.4,550.5L220.4,550.5z M80.9,576c-2.5,7.2-10.3,11-17.4,8.5l-39-13.4
									c-7.2-2.5-11-10.3-8.5-17.4l13.4-39c2.5-7.2,10.3-11,17.4-8.5l39,13.4c7.2,2.5,11,10.3,8.5,17.4L80.9,576z M196.9,616
									c-2.5,7.2-10.3,11-17.4,8.5l-39-13.4c-7.2-2.5-11-10.3-8.5-17.4l13.4-39c2.5-7.2,10.3-11,17.4-8.5l39,13.4
									c7.2,2.5,11,10.3,8.5,17.4L196.9,616L196.9,616z"/>
								<path class="st4" d="M105.8,634.1c-2.8,8-11.5,12.2-19.5,9.5c-8-2.8-12.2-11.5-9.5-19.5l1.1-3.1l-14.6-5l-1.1,3.1
									c-5.5,16,3,33.6,19.1,39.1c16,5.5,33.6-3,39.1-19.1l1.1-3.1l-14.6-5L105.8,634.1L105.8,634.1z"/>
							</g>
							<g>
								<path class="st4" d="M626.9,410.9c0.9-1.9,3.2-2.7,5.1-1.8c1.9,0.9,2.7,3.2,1.8,5.1l-7.1,14.5c-0.5,1-1.3,1.6-2.2,2
									s-2,0.3-2.9-0.2c-1.9-0.9-2.7-3.2-1.8-5.1L626.9,410.9L626.9,410.9z"/>
								<path class="st4" d="M614.6,394.7c0.9-1.9,3.2-2.7,5.1-1.8c1.9,0.9,2.7,3.2,1.8,5.1l-15,30.8c-0.5,1-1.3,1.6-2.2,2
									s-2,0.3-2.9-0.2c-1.9-0.9-2.7-3.2-1.8-5.1L614.6,394.7L614.6,394.7z"/>
								<path class="st4" d="M740.7,371.7c0.9-1.9,3.2-2.7,5.1-1.8c1.9,0.9,2.7,3.2,1.8,5.1l-7.1,14.5c-0.5,1-1.3,1.6-2.2,2
									s-2,0.3-2.9-0.2c-1.9-0.9-2.7-3.2-1.8-5.1L740.7,371.7L740.7,371.7z"/>
								<path class="st4" d="M728.3,355.6c0.9-1.9,3.2-2.7,5.1-1.8c1.9,0.9,2.7,3.2,1.8,5.1l-15,30.8c-0.5,1-1.3,1.6-2.2,2
									s-2,0.3-2.9-0.2c-1.9-0.9-2.7-3.2-1.8-5.1L728.3,355.6L728.3,355.6z"/>
								<path class="st4" d="M542.7,368.2c5.1-7.3,11.7-13.5,19-18.5c4-2.9,10-1.1,11.7,3.6c1.5,4-0.5,8.5-4.5,10
									c-9.2,3.5-17.9,9-24.2,16.6c-6.7,7.9-11.2,18-12.2,28.5C530.6,394.5,534.7,379.8,542.7,368.2L542.7,368.2z"/>
								<path class="st4" d="M717.4,303.8c-1.6-4.8,2-9.9,7-10.1c8.9-0.6,17.9,0.2,26.4,2.8c13.5,4.1,25.7,13.2,32.8,25.4
									c-7.2-7.7-17-12.8-27.1-15c-9.7-2.1-19.9-1.1-29.3,1.9C723.1,310.1,718.7,307.9,717.4,303.8L717.4,303.8z"/>
								<path class="st4" d="M559.2,400.2l22.5,65.2c2.4,7,10.1,10.8,17.1,8.3l65.2-22.5c7-2.4,10.8-10.1,8.3-17.1l-8.2-24l23.1-8
									l8.2,24c2.4,7,10.1,10.8,17.1,8.3l65.2-22.5c7-2.4,10.8-10.1,8.3-17.1l-22.5-65.2c-2.4-7-10.1-10.8-17.1-8.3L681.3,344
									c-7,2.4-10.8,10.1-8.3,17.1l8.8,25.7l-23.1,8l-8.8-25.7c-2.4-7-10.1-10.8-17.1-8.3l-65.2,22.5
									C560.5,385.5,556.8,393.2,559.2,400.2z M691.1,369.9c-2.4-7,1.3-14.7,8.3-17.1l38.3-13.2c7-2.4,14.7,1.3,17.1,8.3l13.2,38.3
									c2.4,7-1.3,14.7-8.3,17.1l-38.3,13.2c-7,2.4-14.7-1.3-17.1-8.3L691.1,369.9z M577.3,409c-2.4-7,1.3-14.7,8.3-17.1l38.3-13.2
									c7-2.4,14.7,1.3,17.1,8.3l13.2,38.3c2.4,7-1.3,14.7-8.3,17.1l-38.3,13.2c-7,2.4-14.7-1.3-17.1-8.3L577.3,409z"/>
								<path class="st4" d="M679.8,465.1c2.7,7.8,11.3,12,19.1,9.3s12-11.3,9.3-19.1l-1-3l14.3-4.9l1,3c5.4,15.7-3,32.9-18.7,38.3
									s-32.9-3-38.3-18.7l-1-3l14.3-4.9L679.8,465.1z"/>
							</g>
							<g>
								<path class="st2" d="M732.1,7.1c0.9-1.9,3.2-2.7,5.1-1.8c1.9,0.9,2.7,3.2,1.8,5.1l-7.1,14.5c-0.5,1-1.3,1.6-2.2,2
									c-0.9,0.3-2,0.3-2.9-0.2c-1.9-0.9-2.7-3.2-1.8-5.1C725,21.6,732.1,7.1,732.1,7.1z"/>
								<path class="st2" d="M719.7-9.1c0.9-1.9,3.2-2.7,5.1-1.8c1.9,0.9,2.7,3.2,1.8,5.1l-15,30.8c-0.5,1-1.3,1.6-2.2,2
									c-0.9,0.3-2,0.3-2.9-0.2c-1.9-0.9-2.7-3.2-1.8-5.1C704.7,21.8,719.7-9.1,719.7-9.1z"/>
								<path class="st2" d="M647.9-35.6c5.1-7.3,11.7-13.5,19-18.5c4-2.9,10-1.1,11.7,3.6c1.5,4-0.5,8.5-4.5,10
									c-9.2,3.5-17.9,9-24.2,16.6c-6.7,7.9-11.2,18-12.2,28.5C635.8-9.3,639.8-24,647.9-35.6z"/>
								<path class="st2" d="M664.3-3.6l22.5,65.2c2.4,7,10.1,10.8,17.1,8.3l65.2-22.5c7-2.4,10.8-10.1,8.3-17.1l-8.2-24l23.1-7.9
									l8.2,24c2.4,7,10.1,10.8,17.1,8.3l65.2-22.5c7-2.4,10.8-10.1,8.3-17.1L868.8-74c-2.4-7-10.1-10.8-17.1-8.3l-65.2,22.5
									c-7,2.4-10.8,10.1-8.3,17.1L787-17l-23.1,7.9L755-34.8c-2.4-7-10.1-10.8-17.1-8.3l-65.2,22.5
									C665.7-18.3,661.9-10.6,664.3-3.6z M796.2-33.9c-2.4-7,1.3-14.7,8.3-17.1l38.3-13.2c7-2.4,14.7,1.3,17.1,8.3l13.2,38.3
									c2.4,7-1.3,14.7-8.3,17.1l-38.3,13.2c-7,2.4-14.7-1.3-17.1-8.3L796.2-33.9z M682.5,5.2c-2.4-7,1.3-14.7,8.3-17.1L729.1-25
									c7-2.4,14.7,1.3,17.1,8.3l13.2,38.3c2.4,7-1.3,14.7-8.3,17.1l-38.3,13.2c-7,2.4-14.7-1.3-17.1-8.3
									C695.7,43.5,682.5,5.2,682.5,5.2z"/>
								<path class="st2" d="M785,61.3c2.7,7.8,11.3,12,19.1,9.3c7.8-2.7,12-11.3,9.3-19.1l-1-3l14.3-4.9l1,3
									c5.4,15.7-3,32.9-18.7,38.3c-15.7,5.4-32.9-3-38.3-18.7l-1-3l14.3-4.9C783.9,58.3,785,61.3,785,61.3z"/>
							</g>
							<g>
								<path class="st4" d="M374.8,96c1.1-2.3,3.9-3.3,6.2-2.1c2.3,1.1,3.3,3.9,2.1,6.2l-8.6,17.6c-0.6,1.2-1.5,2-2.7,2.4
									s-2.4,0.3-3.6-0.2c-2.3-1.1-3.3-3.9-2.1-6.2L374.8,96z"/>
								<path class="st4" d="M359.8,76.5c1.1-2.3,3.9-3.3,6.2-2.1c2.3,1.1,3.3,3.9,2.1,6.2L349.9,118c-0.6,1.2-1.5,2-2.7,2.4
									s-2.4,0.3-3.6-0.2c-2.3-1.1-3.3-3.9-2.1-6.2L359.8,76.5z"/>
								<path class="st4" d="M512.7,48.5c1.1-2.3,3.9-3.3,6.2-2.1c2.3,1.1,3.3,3.9,2.1,6.2l-8.6,17.6c-0.6,1.2-1.5,2-2.7,2.4
									s-2.4,0.3-3.6-0.2c-2.3-1.1-3.3-3.9-2.1-6.2L512.7,48.5L512.7,48.5z"/>
								<path class="st4" d="M497.8,29c1.1-2.3,3.9-3.3,6.2-2.1c2.3,1.1,3.3,3.9,2.1,6.2l-18.2,37.4c-0.6,1.2-1.5,2-2.7,2.4
									s-2.4,0.3-3.6-0.2c-2.3-1.1-3.3-3.9-2.1-6.2C479.5,66.3,497.8,28.9,497.8,29z"/>
								<path class="st4" d="M272.6,44.3c6.1-8.9,14.2-16.3,23.1-22.4c4.9-3.6,12.2-1.4,14.2,4.4c1.8,4.9-0.6,10.3-5.5,12.1
									c-11.2,4.2-21.7,10.9-29.4,20.1c-8.1,9.6-13.5,21.8-14.8,34.6C257.9,76.2,262.8,58.3,272.6,44.3L272.6,44.3z"/>
								<path class="st4" d="M292.6,83.1l27.3,79.2c2.9,8.5,12.2,13,20.7,10.1l79.2-27.3c8.5-2.9,13-12.2,10.1-20.7l-10-29.1l28-9.6
									l10,29.1c2.9,8.5,12.2,13,20.7,10.1l79.2-27.3c8.5-2.9,13-12.2,10.1-20.7L540.6-2.3c-2.9-8.5-12.2-13-20.7-10.1l-79.2,27.3
									c-8.5,2.9-13,12.2-10.1,20.7l10.7,31.2l-28,9.6l-10.7-31.2c-2.9-8.5-12.2-13-20.7-10.1l-79.2,27.3
									C294.2,65.3,289.7,74.6,292.6,83.1z M452.6,46.3c-2.9-8.5,1.6-17.8,10.1-20.7l46.4-16c8.5-2.9,17.8,1.6,20.7,10.1l16,46.4
									c2.9,8.5-1.6,17.8-10.1,20.7l-46.4,16c-8.5,2.9-17.8-1.6-20.7-10.1L452.6,46.3L452.6,46.3z M314.6,93.8
									c-2.9-8.5,1.6-17.8,10.1-20.7l46.4-16c8.5-2.9,17.8,1.6,20.7,10.1l16,46.4c2.9,8.5-1.6,17.8-10.1,20.7l-46.4,16
									c-8.5,2.9-17.8-1.6-20.7-10.1C330.6,140.3,314.6,93.8,314.6,93.8z"/>
								<path class="st4" d="M438.9,161.9c3.3,9.5,13.7,14.6,23.2,11.3s14.6-13.7,11.3-23.2l-1.3-3.7l17.4-6l1.3,3.7
									c6.6,19.1-3.6,39.9-22.7,46.5s-40-3.6-46.5-22.7l-1.3-3.7l17.4-6L438.9,161.9L438.9,161.9z"/>
							</g>
						</g>
					</g>
				</g>
			</g>
		</g>
	</g>
</g>
<linearGradient id="SVGID_00000047059670254597493150000007864249504520331963_" gradientUnits="userSpaceOnUse" x1="458.15" y1="69.4286" x2="458.15" y2="697.4564" gradientTransform="matrix(1 0 0 1 0 -48)">
	<stop  offset="0" style="stop-color:#FFD740;stop-opacity:0"/>
	<stop  offset="1.458609e-02" style="stop-color:#FAD33F;stop-opacity:1.458609e-02"/>
	<stop  offset="0.2322" style="stop-color:#AF942C;stop-opacity:0.2322"/>
	<stop  offset="0.4363" style="stop-color:#715F1C;stop-opacity:0.4363"/>
	<stop  offset="0.6208" style="stop-color:#403610;stop-opacity:0.6208"/>
	<stop  offset="0.7821" style="stop-color:#1D1907;stop-opacity:0.7821"/>
	<stop  offset="0.9139" style="stop-color:#080702;stop-opacity:0.9139"/>
	<stop  offset="1" style="stop-color:#000000"/>
</linearGradient>
<rect style="fill:url(#SVGID_00000047059670254597493150000007864249504520331963_);" width="916.3" height="650.4"/>
</svg>
