<?xml version="1.0" encoding="UTF-8"?>
<svg id="Capa_2" data-name="Capa 2" xmlns="http://www.w3.org/2000/svg" xmlns:xlink="http://www.w3.org/1999/xlink" viewBox="0 0 916.3 650.5">
  <defs>
    <style>
      .cls-1 {
        fill: #ffd740;
      }

      .cls-1, .cls-2, .cls-3, .cls-4, .cls-5 {
        stroke-width: 0px;
      }

      .cls-2 {
        fill: #ef7d3a;
      }

      .cls-3 {
        fill: none;
      }

      .cls-4 {
        fill: #fff;
      }

      .cls-6 {
        clip-path: url(#clippath);
      }

      .cls-5 {
        fill: #e73e26;
      }

      .cls-7 {
        opacity: .25;
      }
    </style>
    <clipPath id="clippath">
      <rect id="SVGID" class="cls-3" width="916.3" height="650.5"/>
    </clipPath>
  </defs>
  <g id="Capa_2-2" data-name="Capa 2">
    <g id="Capa_4" data-name="Capa 4" class="cls-7">
      <rect class="cls-1" width="916.3" height="650.5"/>
      <g class="cls-6">
        <g>
          <g>
            <path class="cls-4" d="m60.8,324.3c-2.6-1.3-5.7-.2-7,2.4s-.2,5.7,2.4,7l19.7,9.6c1.3.6,2.7.7,4,.2,1.3-.4,2.3-1.4,3-2.6,1.3-2.6.2-5.7-2.4-7l-19.7-9.6h0Z"/>
            <path class="cls-4" d="m60.5,296.7c-2.6-1.3-5.7-.2-7,2.4s-.2,5.7,2.4,7l41.9,20.4c1.3.6,2.7.7,4,.2s2.3-1.4,3-2.6c1.3-2.6.2-5.7-2.4-7l-41.9-20.4h0Z"/>
            <path class="cls-4" d="m224.9,202.3c-26,9-42.7,32.8-43.9,58.7-8.7-1.9-19.1-1.1-30.2,2.7-11.1,3.8-19.8,9.6-25.5,16.5-16.9-19.7-44.7-28.2-70.8-19.2-34,11.7-52.1,48.8-40.4,82.9s48.8,52.1,82.9,40.4c34.1-11.7,51.5-47.7,40.9-81.3-.1-.4-.2-.9-.3-1.3-2.5-7.3,8-15.7,19.5-19.7,6.9-2.4,13.9-3.2,19.3-2.2,6.6,1.2,7.8,4.6,8.2,5.7.1.3.2.6.4,1,12.2,33.2,48.8,50.7,82.4,39.1,34-11.7,52.1-48.8,40.4-82.9-11.7-34-48.8-52.1-82.9-40.4h0Zm-134.2,163.7c-23.9,8.2-50-4.5-58.3-28.4s4.5-50,28.4-58.3c23.9-8.2,50,4.5,58.3,28.4s-4.5,50.1-28.4,58.3Zm170.4-58.7c-23.9,8.2-50-4.5-58.3-28.4-8.2-23.9,4.5-50,28.4-58.3,23.9-8.2,50,4.5,58.3,28.4,8.3,23.9-4.5,50.1-28.4,58.3Z"/>
            <path class="cls-4" d="m231.1,265.6c-2.6-1.3-5.7-.2-7,2.4s-.2,5.7,2.4,7l19.7,9.6c1.3.6,2.7.7,4,.2,1.3-.4,2.4-1.4,3-2.6,1.3-2.6.2-5.7-2.4-7l-19.7-9.6h0Z"/>
            <path class="cls-4" d="m230.9,238.1c-2.6-1.3-5.7-.2-7,2.4-1.3,2.6-.2,5.7,2.4,7l41.8,20.4c1.3.6,2.7.7,4,.2s2.4-1.4,3-2.6c1.3-2.6.2-5.7-2.4-7l-41.8-20.4h0Z"/>
            <path class="cls-4" d="m218.8,178.3c12.8-4,26.6-5.4,39.8-2.5,13.8,2.9,27,9.9,36.8,20.3-9.5-16.5-26.2-28.8-44.5-34.4-11.5-3.6-23.7-4.6-35.8-3.8-6.8.2-11.7,7.2-9.5,13.6,1.8,5.4,7.7,8.5,13.2,6.8h0Z"/>
            <path class="cls-4" d="m22.6,267.2c8.9-8.1,16-18.2,21.4-29,3.2-6-.3-13.7-7-15.1-5.7-1.3-11.3,2.3-12.6,7.9-3,13.1-8.8,25.7-17.9,35.6-9.4,10.4-22.1,18.3-36.1,21.6,19.1.2,38.1-8,52.2-21h0Z"/>
            <path class="cls-4" d="m178.2,343.5c-19.1,6.6-29.3,27.5-22.7,46.5s27.4,29.3,46.5,22.7c19.1-6.6,29.3-27.5,22.7-46.5s-27.4-29.3-46.5-22.7h0Zm20,58c-12.9,4.4-27-2.4-31.4-15.3s2.4-27,15.3-31.4c12.9-4.4,27,2.4,31.4,15.3s-2.4,26.9-15.3,31.4h0Z"/>
          </g>
          <g>
            <path class="cls-2" d="m617.9,210.4c-1.8-.9-3.9-.1-4.8,1.6-.9,1.8-.1,3.9,1.6,4.8l13.4,6.6c.9.4,1.9.5,2.7.2.9-.3,1.6-.9,2-1.8.9-1.8.1-3.9-1.6-4.8l-13.3-6.6h0Z"/>
            <path class="cls-2" d="m617.8,191.6c-1.8-.9-3.9-.1-4.8,1.6-.9,1.8-.1,3.9,1.6,4.8l28.6,13.9c.9.4,1.9.5,2.7.2.9-.3,1.6-.9,2-1.8.9-1.8.1-3.9-1.6-4.8l-28.5-13.9h0Z"/>
            <path class="cls-2" d="m730,127.2c-17.8,6.1-29.2,22.4-30,40.1-5.9-1.3-13-.7-20.6,1.9-7.6,2.6-13.5,6.6-17.4,11.2-11.5-13.5-30.5-19.2-48.3-13.1-23.2,8-35.6,33.3-27.6,56.6,8,23.2,33.3,35.6,56.6,27.6,22.9-7.9,35.2-32.5,27.9-55.5-.1-.3-.1-.6-.2-.9-1.7-5,5.4-10.7,13.3-13.4,4.7-1.6,9.5-2.2,13.2-1.5,4.5.8,5.3,3.1,5.6,3.9.1.2.2.4.3.6,8.3,22.6,33.3,34.6,56.2,26.7,23.2-8,35.6-33.3,27.6-56.6-8.1-23.3-33.4-35.6-56.6-27.6h0Zm-91.6,111.7c-16.3,5.6-34.1-3.1-39.8-19.4-5.6-16.3,3.1-34.1,19.4-39.8,16.3-5.6,34.1,3.1,39.8,19.4,5.6,16.4-3.1,34.2-19.4,39.8Zm116.2-40.1c-16.3,5.6-34.1-3.1-39.8-19.4-5.6-16.3,3.1-34.1,19.4-39.8,16.3-5.6,34.1,3.1,39.8,19.4,5.7,16.4-3,34.2-19.4,39.8Z"/>
            <path class="cls-2" d="m734.2,170.4c-1.8-.9-3.9-.1-4.8,1.6-.9,1.8-.1,3.9,1.6,4.8l13.4,6.6c.9.4,1.9.5,2.7.2s1.6-.9,2-1.8c.9-1.8.1-3.9-1.6-4.8l-13.3-6.6h0Z"/>
            <path class="cls-2" d="m734,151.6c-1.8-.9-3.9-.1-4.8,1.6-.9,1.8-.1,3.9,1.6,4.8l28.6,13.9c.9.4,1.9.5,2.7.2s1.6-.9,2-1.8c.9-1.8.1-3.9-1.6-4.8l-28.5-13.9h0Z"/>
            <path class="cls-2" d="m725.8,110.8c8.7-2.8,18.2-3.7,27.2-1.7,9.4,2,18.4,6.8,25.1,13.9-6.5-11.3-17.8-19.7-30.3-23.5-7.9-2.5-16.2-3.2-24.4-2.6-4.6.2-8,4.9-6.5,9.3,1.1,3.7,5.1,5.8,8.9,4.6h0Z"/>
            <path class="cls-2" d="m591.9,171.5c6.1-5.6,10.9-12.4,14.6-19.8,2.2-4.1-.2-9.4-4.8-10.3-3.9-.9-7.7,1.5-8.6,5.4-2,8.9-6,17.5-12.2,24.3-6.4,7.1-15.1,12.5-24.6,14.7,13,.1,26-5.5,35.6-14.3h0Z"/>
            <path class="cls-2" d="m698.1,223.5c-13,4.5-20,18.7-15.5,31.8,4.5,13.1,18.7,20,31.8,15.5,13-4.5,20-18.7,15.5-31.8s-18.7-20-31.8-15.5h0Zm13.7,39.6c-8.8,3-18.4-1.7-21.4-10.5-3-8.8,1.7-18.4,10.5-21.4s18.4,1.7,21.4,10.5c2.9,8.7-1.7,18.4-10.5,21.4Z"/>
          </g>
          <g>
            <path class="cls-4" d="m364.7,591.1c-2.2-1-4.8-.2-5.8,2s-.2,4.8,2,5.8l16.5,8c1.1.5,2.3.6,3.3.2,1-.4,2-1.1,2.5-2.2,1-2.2.2-4.8-2-5.8l-16.5-8h0Z"/>
            <path class="cls-4" d="m364.5,568.1c-2.2-1-4.8-.2-5.8,2s-.2,4.8,2,5.8l35,17c1.1.5,2.3.6,3.3.2s2-1.1,2.5-2.2c1-2.2.2-4.8-2-5.8l-35-17h0Z"/>
            <path class="cls-4" d="m501.9,489.3c-21.8,7.5-35.7,27.4-36.7,49-7.3-1.6-16-.9-25.2,2.3-9.3,3.2-16.6,8-21.3,13.8-14.1-16.5-37.4-23.6-59.1-16.1-28.5,9.8-43.6,40.8-33.8,69.2,9.8,28.5,40.8,43.6,69.2,33.8,28-9.6,43.1-39.8,34.2-67.9-.1-.4-.2-.7-.3-1.1-2.1-6.1,6.6-13.1,16.3-16.5,5.8-2,11.6-2.7,16.1-1.8,5.5,1,6.5,3.8,6.8,4.8.1.3.2.5.3.8,10.2,27.7,40.8,42.3,68.8,32.7,28.5-9.8,43.6-40.8,33.8-69.2s-40.7-43.6-69.1-33.8h0Zm-112.2,136.7c-20,6.9-41.8-3.7-48.7-23.7-6.9-20,3.7-41.8,23.7-48.7s41.8,3.7,48.7,23.7c6.9,20-3.7,41.8-23.7,48.7Zm142.4-49c-20,6.9-41.8-3.7-48.7-23.7-6.9-20,3.7-41.8,23.7-48.7,20-6.9,41.8,3.7,48.7,23.7s-3.7,41.8-23.7,48.7Z"/>
            <path class="cls-4" d="m507,542.1c-2.2-1-4.8-.2-5.8,2s-.2,4.8,2,5.8l16.4,8c1.1.5,2.3.6,3.3.2,1-.4,2-1.1,2.5-2.2,1-2.2.2-4.8-2-5.8l-16.4-8h0Z"/>
            <path class="cls-4" d="m506.8,519.1c-2.2-1-4.8-.2-5.8,2s-.2,4.8,2,5.8l35,17c1.1.5,2.3.6,3.3.2,1-.4,2-1.1,2.5-2.2,1-2.2.2-4.8-2-5.8l-35-17h0Z"/>
            <path class="cls-4" d="m496.7,469.1c10.7-3.4,22.2-4.5,33.2-2.1,11.5,2.4,22.5,8.3,30.8,17-8-13.8-21.8-24.1-37.2-28.8-9.6-3-19.8-3.9-29.9-3.2-5.6.2-9.8,6-8,11.4,1.6,4.6,6.5,7.2,11.1,5.7h0Z"/>
            <path class="cls-4" d="m332.8,543.5c7.5-6.8,13.3-15.2,17.9-24.2,2.7-5-.3-11.5-5.8-12.6-4.7-1.1-9.4,1.9-10.5,6.6-2.5,10.9-7.3,21.4-14.9,29.8-7.9,8.7-18.5,15.3-30.2,18,15.9,0,31.8-6.8,43.5-17.6h0Z"/>
            <path class="cls-4" d="m462.8,607.2c-16,5.5-24.5,22.9-19,38.9s22.9,24.5,38.9,19,24.5-22.9,19-38.9-22.9-24.5-38.9-19h0Zm16.7,48.4c-10.8,3.7-22.5-2-26.2-12.8s2-22.5,12.8-26.2,22.5,2,26.2,12.8c3.7,10.8-2,22.5-12.8,26.2Z"/>
          </g>
          <g>
            <path class="cls-2" d="m438.1,425.3c1.6-.8,3.6-.1,4.4,1.5s.1,3.6-1.5,4.4l-12.4,6c-.8.4-1.7.4-2.5.1s-1.5-.9-1.9-1.7c-.8-1.6-.1-3.6,1.5-4.4l12.4-5.9Z"/>
            <path class="cls-2" d="m438.3,408c1.6-.8,3.6-.1,4.4,1.5s.1,3.6-1.5,4.4l-26.3,12.8c-.8.4-1.7.4-2.5.1s-1.5-.9-1.9-1.7c-.8-1.6-.1-3.6,1.5-4.4l26.3-12.7Z"/>
            <path class="cls-2" d="m283,374.1c-7.4,21.4,4,44.7,25.4,52,21.1,7.3,44.1-3.7,51.7-24.6.1-.2.2-.4.2-.6.2-.7,1-2.8,5.1-3.6,3.4-.6,7.8-.1,12.1,1.4,7.3,2.5,13.8,7.8,12.2,12.4-.1.3-.2.5-.2.8-6.7,21.1,4.7,43.8,25.7,51,21.4,7.4,44.7-4,52-25.4s-4-44.7-25.4-52c-16.4-5.6-33.8-.3-44.4,12.1-3.6-4.3-9-8-16-10.4s-13.5-2.9-19-1.7c-.7-16.3-11.2-31.2-27.6-36.9-21.2-7.2-44.5,4.2-51.8,25.5h0Zm118.5,40.8c5.2-15,21.5-23,36.6-17.8,15,5.2,23,21.5,17.8,36.6s-21.5,23-36.6,17.8-23-21.5-17.8-36.6h0Zm-107-36.8c5.2-15,21.5-23,36.6-17.8s23,21.5,17.8,36.6c-5.2,15-21.5,23-36.6,17.8s-23-21.6-17.8-36.6h0Z"/>
            <path class="cls-2" d="m331.1,388.5c1.6-.8,3.6-.1,4.4,1.5s.1,3.6-1.5,4.4l-12.4,6c-.8.4-1.7.4-2.5.1s-1.5-.9-1.9-1.7c-.8-1.6-.1-3.6,1.5-4.4l12.4-5.9Z"/>
            <path class="cls-2" d="m331.3,371.2c1.6-.8,3.6-.1,4.4,1.5s.1,3.6-1.5,4.4l-26.3,12.8c-.8.4-1.7.4-2.5.1s-1.5-.9-1.9-1.7c-.8-1.6-.1-3.6,1.5-4.4l26.3-12.7Z"/>
            <path class="cls-2" d="m338.9,333.6c-8-2.5-16.7-3.4-25-1.6-8.6,1.8-16.9,6.2-23.1,12.8,6-10.4,16.4-18.1,27.9-21.6,7.2-2.3,14.9-2.9,22.5-2.4,4.2.1,7.3,4.5,6,8.6-1.2,3.4-4.9,5.3-8.3,4.2h0Z"/>
            <path class="cls-2" d="m462,389.5c-5.6-5.1-10-11.4-13.4-18.2-2-3.7.2-8.6,4.4-9.5,3.5-.8,7.1,1.4,7.9,5,1.9,8.2,5.5,16.1,11.2,22.4,5.9,6.5,13.9,11.5,22.7,13.5-12,.1-23.9-5.1-32.8-13.2h0Z"/>
            <path class="cls-2" d="m335.1,451.6c-4.1,12,2.3,25.1,14.2,29.2,12,4.1,25.1-2.3,29.2-14.2,4.1-12-2.3-25.1-14.2-29.2-12-4.2-25.1,2.2-29.2,14.2Zm7.1,2.4c2.8-8.1,11.6-12.4,19.7-9.6s12.4,11.6,9.6,19.7-11.6,12.4-19.7,9.6c-8.1-2.7-12.4-11.6-9.6-19.7Z"/>
          </g>
          <g>
            <path class="cls-4" d="m929.4,288c1.5-.7,3.3-.1,4,1.4s.1,3.3-1.4,4l-23.9,11.6c-.7.4-1.5.4-2.3.1s-1.3-.8-1.7-1.5c-.7-1.5-.1-3.3,1.4-4l23.9-11.6h0Z"/>
            <path class="cls-4" d="m788.2,257.1c-6.7,19.5,3.6,40.6,23.1,47.3,19.2,6.6,40.1-3.4,47.1-22.3.1-.2.2-.4.2-.5.2-.6.9-2.5,4.7-3.2,3.1-.6,7.1-.1,11,1.2,6.6,2.3,12.6,7.1,11.2,11.2-.1.2-.1.5-.2.7-6.1,19.2,4.2,39.8,23.4,46.4,19.5,6.7,40.6-3.6,47.3-23.1s-3.6-40.6-23.1-47.3c-14.9-5.1-30.8-.3-40.4,11-3.2-3.9-8.2-7.2-14.6-9.4-6.3-2.2-12.3-2.6-17.3-1.6-.7-14.8-10.2-28.4-25.1-33.5-19.5-6.7-40.7,3.7-47.3,23.1h0Zm107.7,37.2c4.7-13.7,19.6-20.9,33.3-16.2s20.9,19.6,16.2,33.3c-4.7,13.7-19.6,20.9-33.3,16.2-13.6-4.8-20.9-19.7-16.2-33.3h0Zm-97.3-33.5c4.7-13.7,19.6-20.9,33.3-16.2s20.9,19.6,16.2,33.3-19.6,20.9-33.3,16.2c-13.6-4.8-20.9-19.7-16.2-33.3Z"/>
            <path class="cls-4" d="m831.9,270.2c1.5-.7,3.3-.1,4,1.4s.1,3.3-1.4,4l-11.2,5.5c-.7.4-1.5.4-2.3.1s-1.3-.8-1.7-1.5c-.7-1.5-.1-3.3,1.4-4l11.2-5.5h0Z"/>
            <path class="cls-4" d="m832.1,254.5c1.5-.7,3.3-.1,4,1.4s.1,3.3-1.4,4l-23.9,11.7c-.7.4-1.5.4-2.3.1s-1.3-.8-1.7-1.5c-.7-1.5-.1-3.3,1.4-4l23.9-11.7h0Z"/>
            <path class="cls-4" d="m839,220.3c-7.3-2.3-15.2-3.1-22.7-1.4-7.8,1.7-15.4,5.6-21,11.6,5.4-9.4,14.9-16.5,25.4-19.7,6.6-2.1,13.5-2.6,20.4-2.2,3.9.1,6.7,4.1,5.4,7.8-1,3.2-4.3,4.9-7.5,3.9h0Z"/>
            <path class="cls-4" d="m835.6,327.6c-3.8,10.9,2.1,22.8,13,26.6s22.8-2.1,26.6-13-2.1-22.8-13-26.6c-11-3.7-22.9,2.1-26.6,13Zm6.4,2.3c2.5-7.4,10.6-11.3,17.9-8.8s11.3,10.6,8.8,17.9-10.6,11.3-17.9,8.8-11.3-10.6-8.8-17.9Z"/>
          </g>
          <g>
            <path class="cls-2" d="m942.2,572.3c2.3-1.1,5-.2,6.1,2.1s.2,5-2.1,6.1l-36.5,17.8c-1.1.5-2.4.6-3.5.2s-2.1-1.2-2.6-2.3c-1.1-2.3-.2-5,2.1-6.1l36.5-17.8h0Z"/>
            <path class="cls-2" d="m726.2,525.2c-10.2,29.7,5.6,62.1,35.3,72.4,29.3,10.1,61.3-5.2,71.9-34.2.1-.3.2-.5.3-.8.3-1,1.3-3.9,7.1-5,4.7-.9,10.8-.2,16.9,1.9,10.1,3.5,19.2,10.9,17,17.2-.1.4-.2.8-.3,1.1-9.3,29.3,6.5,60.9,35.7,70.9,29.7,10.2,62.1-5.6,72.4-35.3s-5.6-62.1-35.3-72.4c-22.7-7.8-47-.4-61.8,16.8-5-6-12.6-11-22.3-14.4-9.7-3.3-18.8-4-26.4-2.4-1-22.6-15.6-43.4-38.3-51.2-29.5-10.1-61.9,5.7-72.2,35.4h0Zm164.8,56.8c7.2-20.9,30-32,50.9-24.8s32,30,24.8,50.9-30,32-50.9,24.8c-20.9-7.3-32-30-24.8-50.9Zm-148.8-51.2c7.2-20.9,30-32,50.9-24.8s32,30,24.8,50.9-30,32-50.9,24.8c-20.9-7.3-32-30-24.8-50.9Z"/>
            <path class="cls-2" d="m793.2,545.2c2.3-1.1,5-.2,6.1,2.1s.2,5-2.1,6.1l-17.2,8.4c-1.1.5-2.4.6-3.5.2s-2.1-1.2-2.6-2.3c-1.1-2.3-.2-5,2.1-6.1l17.2-8.4h0Z"/>
            <path class="cls-2" d="m793.4,521.1c2.3-1.1,5-.2,6.1,2.1s.2,5-2.1,6.1l-36.5,17.8c-1.1.5-2.4.6-3.5.2s-2.1-1.2-2.6-2.3c-1.1-2.3-.2-5,2.1-6.1l36.5-17.8h0Z"/>
            <path class="cls-2" d="m804,468.9c-11.2-3.5-23.2-4.7-34.7-2.2-12,2.5-23.5,8.6-32.1,17.7,8.3-14.4,22.8-25.2,38.8-30.1,10.1-3.1,20.7-4,31.2-3.4,5.9.2,10.2,6.3,8.3,11.9-1.6,5-6.7,7.7-11.5,6.1h0Z"/>
            <path class="cls-2" d="m798.7,633c-5.7,16.7,3.2,34.9,19.8,40.6s34.9-3.2,40.6-19.8-3.2-34.9-19.8-40.6-34.9,3.1-40.6,19.8Zm9.8,3.4c3.9-11.2,16.2-17.2,27.4-13.4s17.2,16.2,13.4,27.4c-3.9,11.2-16.2,17.2-27.4,13.4-11.2-3.9-17.2-16.2-13.4-27.4Z"/>
          </g>
          <g>
            <path class="cls-4" d="m528.9,276.4c-.6-1.2-2-1.7-3.2-1.1s-1.7,2-1.1,3.2l4.4,9c.3.6.8,1,1.4,1.2s1.2.2,1.8-.1c1.2-.6,1.7-2,1.1-3.2l-4.4-9Z"/>
            <path class="cls-4" d="m536.6,266.4c-.6-1.2-2-1.7-3.2-1.1s-1.7,2-1.1,3.2l9.3,19.1c.3.6.8,1,1.4,1.2s1.2.2,1.8-.1c1.2-.6,1.7-2,1.1-3.2l-9.3-19.1Z"/>
            <path class="cls-4" d="m458.3,252c-.6-1.2-2-1.7-3.2-1.1-1.2.6-1.7,2-1.1,3.2l4.4,9c.3.6.8,1,1.4,1.2s1.2.2,1.8-.1c1.2-.6,1.7-2,1.1-3.2l-4.4-9Z"/>
            <path class="cls-4" d="m466,242c-.6-1.2-2-1.7-3.2-1.1-1.2.6-1.7,2-1.1,3.2l9.3,19.1c.3.6.8,1,1.4,1.2s1.2.2,1.8-.1c1.2-.6,1.7-2,1.1-3.2l-9.3-19.1Z"/>
            <path class="cls-4" d="m581.2,249.9c-3.1-4.5-7.2-8.4-11.8-11.5-2.5-1.8-6.2-.7-7.3,2.2-.9,2.5.3,5.3,2.8,6.2,5.7,2.1,11.1,5.6,15,10.3,4.1,4.9,6.9,11.2,7.6,17.7,1.3-8.6-1.3-17.7-6.3-24.9h0Z"/>
            <path class="cls-4" d="m472.7,209.9c1-2.9-1.3-6.1-4.4-6.2-5.5-.4-11.1.1-16.4,1.8-8.4,2.6-16,8.2-20.3,15.8,4.5-4.8,10.6-8,16.9-9.3,6-1.3,12.4-.7,18.2,1.1,2.5.7,5.2-.7,6-3.2h0Z"/>
            <path class="cls-4" d="m565.8,259.1l-40.5-13.9c-4.4-1.5-9.1.8-10.6,5.2l-5.5,16-14.3-4.9,5.5-16c1.5-4.4-.8-9.1-5.2-10.6l-40.5-13.9c-4.4-1.5-9.1.8-10.6,5.2l-14,40.5c-1.5,4.4.8,9.1,5.2,10.6l40.5,14c4.4,1.5,9.1-.8,10.6-5.2l5.1-14.9,14.3,4.9-5.1,14.9c-1.5,4.4.8,9.1,5.2,10.6l40.5,14c4.4,1.5,9.1-.8,10.6-5.2l14-40.5c1.5-4.5-.8-9.3-5.2-10.8Zm-84.9,15.6c-1.5,4.4-6.2,6.7-10.6,5.2l-23.8-8.2c-4.4-1.5-6.7-6.2-5.2-10.6l8.2-23.8c1.5-4.4,6.2-6.7,10.6-5.2l23.8,8.2c4.4,1.5,6.7,6.2,5.2,10.6l-8.2,23.8h0Zm70.6,24.3c-1.5,4.4-6.2,6.7-10.6,5.2l-23.8-8.2c-4.4-1.5-6.7-6.2-5.2-10.6l8.2-23.8c1.5-4.4,6.2-6.7,10.6-5.2l23.8,8.2c4.4,1.5,6.7,6.2,5.2,10.6l-8.2,23.8Z"/>
            <path class="cls-4" d="m496.1,310.1c-1.7,4.9-7,7.5-11.9,5.8s-7.5-7-5.8-11.9l.6-1.9-8.9-3.1-.6,1.9c-3.4,9.8,1.9,20.5,11.6,23.8,9.8,3.4,20.5-1.9,23.8-11.6l.6-1.9-8.9-3.1-.5,2h0Z"/>
          </g>
          <g>
            <path class="cls-2" d="m157.3,90.4c-.8-1.7-2.8-2.4-4.5-1.6s-2.4,2.8-1.6,4.5l6.2,12.7c.4.8,1.1,1.4,1.9,1.7.8.3,1.7.2,2.6-.2,1.7-.8,2.4-2.8,1.6-4.5,0,.1-6.2-12.6-6.2-12.6Z"/>
            <path class="cls-2" d="m168.1,76.2c-.8-1.7-2.8-2.4-4.5-1.6s-2.4,2.8-1.6,4.5l13.2,27c.4.8,1.1,1.4,1.9,1.7s1.7.2,2.6-.2c1.7-.8,2.4-2.8,1.6-4.5l-13.2-26.9h0Z"/>
            <path class="cls-2" d="m57.5,56c-.8-1.7-2.8-2.4-4.5-1.5-1.7.8-2.4,2.8-1.5,4.5l6.2,12.7c.4.8,1.1,1.4,1.9,1.7s1.7.2,2.6-.2c1.7-.8,2.4-2.8,1.5-4.5.1.1-6.2-12.7-6.2-12.7Z"/>
            <path class="cls-2" d="m68.4,41.9c-.8-1.7-2.8-2.4-4.5-1.5s-2.4,2.8-1.5,4.5l13.2,27c.4.8,1.1,1.4,1.9,1.7s1.7.2,2.6-.2c1.7-.8,2.4-2.8,1.6-4.5-.1,0-13.3-27-13.3-27Z"/>
            <path class="cls-2" d="m231.1,53c-4.4-6.4-10.2-11.8-16.7-16.2-3.5-2.6-8.8-1-10.3,3.2-1.3,3.5.5,7.4,4,8.7,8.1,3,15.7,7.8,21.2,14.5,5.8,6.9,9.8,15.8,10.7,25,1.7-12.1-1.8-25-8.9-35.2h0Z"/>
            <path class="cls-2" d="m77.9-3.5c1.4-4.2-1.8-8.7-6.2-8.8-7.8-.5-15.7.2-23.1,2.5C36.8-6.2,26.1,1.8,19.9,12.4,26.3,5.7,34.8,1.2,43.7-.7c8.5-1.8,17.5-1,25.7,1.6,3.6,1.2,7.4-.8,8.5-4.4Z"/>
            <path class="cls-2" d="m209.4,66.1l-57.2-19.7c-6.1-2.1-12.9,1.2-15,7.3l-7.8,22.5-20.2-7,7.8-22.5c2.1-6.2-1.2-12.9-7.3-15L52.4,12c-6.2-2.1-12.9,1.1-15,7.3l-19.7,57.3c-2.1,6.2,1.1,12.9,7.3,15l57.2,19.7c6.2,2.1,12.9-1.2,15-7.3l7.2-21,20.2,7-7.2,21c-2.1,6.2,1.2,12.9,7.3,15l57.2,19.7c6.1,2.1,12.9-1.1,15-7.3l19.8-57.4c2.1-6.1-1.2-12.8-7.3-14.9h0Zm-119.9,21.9c-2.1,6.2-8.8,9.4-15,7.3l-33.5-11.5c-6.2-2.1-9.4-8.8-7.3-15l11.5-33.5c2.1-6.1,8.8-9.4,15-7.3l33.6,11.6c6.2,2.1,9.4,8.8,7.3,15-.1-.1-11.6,33.4-11.6,33.4Zm99.7,34.4c-2.1,6.1-8.8,9.4-15,7.3l-33.6-11.6c-6.1-2.1-9.4-8.8-7.3-15l11.6-33.6c2.1-6.2,8.8-9.4,15-7.3l33.6,11.5c6.1,2.1,9.4,8.8,7.3,15l-11.6,33.7Z"/>
            <path class="cls-2" d="m110.9,138c-2.4,6.9-9.9,10.5-16.7,8.2-6.9-2.4-10.5-9.9-8.2-16.7l.9-2.6-12.6-4.3-.9,2.6c-4.8,13.8,2.6,28.9,16.4,33.6s28.9-2.6,33.6-16.4l.9-2.6-12.6-4.3-.8,2.5h0Z"/>
          </g>
          <g>
            <path class="cls-5" d="m159.8,578.8c-.9-1.9-3.3-2.8-5.2-1.8s-2.8,3.3-1.8,5.2l7.2,14.8c.5,1,1.3,1.7,2.2,2s2,.3,3-.2c1.9-1,2.8-3.3,1.8-5.2l-7.2-14.8h0Z"/>
            <path class="cls-5" d="m172.4,562.3c-.9-1.9-3.3-2.8-5.2-1.8s-2.8,3.3-1.8,5.2l15.3,31.5c.5,1,1.3,1.7,2.2,2s2,.3,3-.2c1.9-1,2.8-3.3,1.8-5.2l-15.3-31.5h0Z"/>
            <path class="cls-5" d="m43.8,538.8c-1-1.9-3.3-2.8-5.2-1.8s-2.8,3.3-1.8,5.2l7.2,14.8c.5,1,1.3,1.7,2.2,2s2,.3,3-.2c1.9-1,2.8-3.3,1.8-5.2l-7.2-14.8h0Z"/>
            <path class="cls-5" d="m56.3,522.4c-1-1.9-3.3-2.8-5.2-1.8s-2.8,3.3-1.8,5.2l15.3,31.5c.5,1,1.3,1.7,2.2,2s2,.3,3-.2c1.9-1,2.8-3.3,1.8-5.2l-15.3-31.5h0Z"/>
            <path class="cls-5" d="m245.6,535.3c-5.2-7.5-11.9-13.7-19.4-18.8-4.1-3-10.2-1.1-12,3.7-1.5,4.1.5,8.6,4.6,10.2,9.4,3.5,18.2,9.1,24.7,16.9,6.8,8.1,11.4,18.3,12.4,29,2.1-14.2-2-29.2-10.3-41h0Z"/>
            <path class="cls-5" d="m67.5,469.6c1.6-4.8-2.1-10.1-7.2-10.3-9.1-.6-18.2.2-26.9,2.9-13.7,4.2-26.2,13.5-33.4,25.9,7.4-7.8,17.3-13.1,27.7-15.3,9.9-2.1,20.3-1.1,29.9,1.9,4.1,1.4,8.5-1,9.9-5.1h0Z"/>
            <path class="cls-5" d="m220.4,550.5l-66.6-22.9c-7.2-2.5-15,1.3-17.4,8.5l-9,26.2-23.5-8.1,9-26.2c2.5-7.2-1.3-15-8.5-17.4l-66.6-22.9c-7.2-2.5-15,1.3-17.4,8.5l-22.9,66.5c-2.5,7.2,1.3,15,8.5,17.4l66.5,22.9c7.2,2.5,15-1.3,17.4-8.5l8.4-24.4,23.5,8.1-8.4,24.4c-2.5,7.2,1.3,15,8.5,17.4l66.5,22.9c7.2,2.5,15-1.3,17.4-8.5l22.9-66.5c2.6-7.2-1.2-15-8.3-17.4h0Zm-139.5,25.5c-2.5,7.2-10.3,11-17.4,8.5l-39-13.4c-7.2-2.5-11-10.3-8.5-17.4l13.4-39c2.5-7.2,10.3-11,17.4-8.5l39,13.4c7.2,2.5,11,10.3,8.5,17.4l-13.4,39Zm116,40c-2.5,7.2-10.3,11-17.4,8.5l-39-13.4c-7.2-2.5-11-10.3-8.5-17.4l13.4-39c2.5-7.2,10.3-11,17.4-8.5l39,13.4c7.2,2.5,11,10.3,8.5,17.4l-13.4,39h0Z"/>
            <path class="cls-5" d="m105.8,634.1c-2.8,8-11.5,12.2-19.5,9.5-8-2.8-12.2-11.5-9.5-19.5l1.1-3.1-14.6-5-1.1,3.1c-5.5,16,3,33.6,19.1,39.1,16,5.5,33.6-3,39.1-19.1l1.1-3.1-14.6-5-1.1,3.1h0Z"/>
          </g>
          <g>
            <path class="cls-5" d="m626.9,410.9c.9-1.9,3.2-2.7,5.1-1.8,1.9.9,2.7,3.2,1.8,5.1l-7.1,14.5c-.5,1-1.3,1.6-2.2,2s-2,.3-2.9-.2c-1.9-.9-2.7-3.2-1.8-5.1l7.1-14.5h0Z"/>
            <path class="cls-5" d="m614.6,394.7c.9-1.9,3.2-2.7,5.1-1.8,1.9.9,2.7,3.2,1.8,5.1l-15,30.8c-.5,1-1.3,1.6-2.2,2s-2,.3-2.9-.2c-1.9-.9-2.7-3.2-1.8-5.1l15-30.8h0Z"/>
            <path class="cls-5" d="m740.7,371.7c.9-1.9,3.2-2.7,5.1-1.8,1.9.9,2.7,3.2,1.8,5.1l-7.1,14.5c-.5,1-1.3,1.6-2.2,2s-2,.3-2.9-.2c-1.9-.9-2.7-3.2-1.8-5.1l7.1-14.5h0Z"/>
            <path class="cls-5" d="m728.3,355.6c.9-1.9,3.2-2.7,5.1-1.8,1.9.9,2.7,3.2,1.8,5.1l-15,30.8c-.5,1-1.3,1.6-2.2,2s-2,.3-2.9-.2c-1.9-.9-2.7-3.2-1.8-5.1l15-30.8h0Z"/>
            <path class="cls-5" d="m542.7,368.2c5.1-7.3,11.7-13.5,19-18.5,4-2.9,10-1.1,11.7,3.6,1.5,4-.5,8.5-4.5,10-9.2,3.5-17.9,9-24.2,16.6-6.7,7.9-11.2,18-12.2,28.5-1.9-13.9,2.2-28.6,10.2-40.2h0Z"/>
            <path class="cls-5" d="m717.4,303.8c-1.6-4.8,2-9.9,7-10.1,8.9-.6,17.9.2,26.4,2.8,13.5,4.1,25.7,13.2,32.8,25.4-7.2-7.7-17-12.8-27.1-15-9.7-2.1-19.9-1.1-29.3,1.9-4.1,1.3-8.5-.9-9.8-5h0Z"/>
            <path class="cls-5" d="m559.2,400.2l22.5,65.2c2.4,7,10.1,10.8,17.1,8.3l65.2-22.5c7-2.4,10.8-10.1,8.3-17.1l-8.2-24,23.1-8,8.2,24c2.4,7,10.1,10.8,17.1,8.3l65.2-22.5c7-2.4,10.8-10.1,8.3-17.1l-22.5-65.2c-2.4-7-10.1-10.8-17.1-8.3l-65.1,22.7c-7,2.4-10.8,10.1-8.3,17.1l8.8,25.7-23.1,8-8.8-25.7c-2.4-7-10.1-10.8-17.1-8.3l-65.2,22.5c-7.1,2.2-10.8,9.9-8.4,16.9Zm131.9-30.3c-2.4-7,1.3-14.7,8.3-17.1l38.3-13.2c7-2.4,14.7,1.3,17.1,8.3l13.2,38.3c2.4,7-1.3,14.7-8.3,17.1l-38.3,13.2c-7,2.4-14.7-1.3-17.1-8.3l-13.2-38.3Zm-113.8,39.1c-2.4-7,1.3-14.7,8.3-17.1l38.3-13.2c7-2.4,14.7,1.3,17.1,8.3l13.2,38.3c2.4,7-1.3,14.7-8.3,17.1l-38.3,13.2c-7,2.4-14.7-1.3-17.1-8.3l-13.2-38.3Z"/>
            <path class="cls-5" d="m679.8,465.1c2.7,7.8,11.3,12,19.1,9.3s12-11.3,9.3-19.1l-1-3,14.3-4.9,1,3c5.4,15.7-3,32.9-18.7,38.3s-32.9-3-38.3-18.7l-1-3,14.3-4.9,1,3Z"/>
          </g>
          <g>
            <path class="cls-4" d="m732.1,7.1c.9-1.9,3.2-2.7,5.1-1.8,1.9.9,2.7,3.2,1.8,5.1l-7.1,14.5c-.5,1-1.3,1.6-2.2,2-.9.3-2,.3-2.9-.2-1.9-.9-2.7-3.2-1.8-5.1,0,0,7.1-14.5,7.1-14.5Z"/>
            <path class="cls-4" d="m719.7-9.1c.9-1.9,3.2-2.7,5.1-1.8,1.9.9,2.7,3.2,1.8,5.1l-15,30.8c-.5,1-1.3,1.6-2.2,2-.9.3-2,.3-2.9-.2-1.9-.9-2.7-3.2-1.8-5.1,0,.1,15-30.8,15-30.8Z"/>
            <path class="cls-4" d="m647.9-35.6c5.1-7.3,11.7-13.5,19-18.5,4-2.9,10-1.1,11.7,3.6,1.5,4-.5,8.5-4.5,10-9.2,3.5-17.9,9-24.2,16.6-6.7,7.9-11.2,18-12.2,28.5-1.9-13.9,2.1-28.6,10.2-40.2Z"/>
            <path class="cls-4" d="m664.3-3.6l22.5,65.2c2.4,7,10.1,10.8,17.1,8.3l65.2-22.5c7-2.4,10.8-10.1,8.3-17.1l-8.2-24,23.1-7.9,8.2,24c2.4,7,10.1,10.8,17.1,8.3l65.2-22.5c7-2.4,10.8-10.1,8.3-17.1l-22.3-65.1c-2.4-7-10.1-10.8-17.1-8.3l-65.2,22.5c-7,2.4-10.8,10.1-8.3,17.1l8.8,25.7-23.1,7.9-8.9-25.7c-2.4-7-10.1-10.8-17.1-8.3l-65.2,22.5c-7,2.3-10.8,10-8.4,17Zm131.9-30.3c-2.4-7,1.3-14.7,8.3-17.1l38.3-13.2c7-2.4,14.7,1.3,17.1,8.3l13.2,38.3c2.4,7-1.3,14.7-8.3,17.1l-38.3,13.2c-7,2.4-14.7-1.3-17.1-8.3l-13.2-38.3Zm-113.7,39.1c-2.4-7,1.3-14.7,8.3-17.1l38.3-13.1c7-2.4,14.7,1.3,17.1,8.3l13.2,38.3c2.4,7-1.3,14.7-8.3,17.1l-38.3,13.2c-7,2.4-14.7-1.3-17.1-8.3,0-.1-13.2-38.4-13.2-38.4Z"/>
            <path class="cls-4" d="m785,61.3c2.7,7.8,11.3,12,19.1,9.3,7.8-2.7,12-11.3,9.3-19.1l-1-3,14.3-4.9,1,3c5.4,15.7-3,32.9-18.7,38.3-15.7,5.4-32.9-3-38.3-18.7l-1-3,14.3-4.9c-.1,0,1,3,1,3Z"/>
          </g>
          <g>
            <path class="cls-5" d="m374.8,96c1.1-2.3,3.9-3.3,6.2-2.1,2.3,1.1,3.3,3.9,2.1,6.2l-8.6,17.6c-.6,1.2-1.5,2-2.7,2.4s-2.4.3-3.6-.2c-2.3-1.1-3.3-3.9-2.1-6.2l8.7-17.7Z"/>
            <path class="cls-5" d="m359.8,76.5c1.1-2.3,3.9-3.3,6.2-2.1,2.3,1.1,3.3,3.9,2.1,6.2l-18.2,37.4c-.6,1.2-1.5,2-2.7,2.4s-2.4.3-3.6-.2c-2.3-1.1-3.3-3.9-2.1-6.2l18.3-37.5Z"/>
            <path class="cls-5" d="m512.7,48.5c1.1-2.3,3.9-3.3,6.2-2.1,2.3,1.1,3.3,3.9,2.1,6.2l-8.6,17.6c-.6,1.2-1.5,2-2.7,2.4s-2.4.3-3.6-.2c-2.3-1.1-3.3-3.9-2.1-6.2l8.7-17.7h0Z"/>
            <path class="cls-5" d="m497.8,29c1.1-2.3,3.9-3.3,6.2-2.1,2.3,1.1,3.3,3.9,2.1,6.2l-18.2,37.4c-.6,1.2-1.5,2-2.7,2.4s-2.4.3-3.6-.2c-2.3-1.1-3.3-3.9-2.1-6.2,0-.2,18.3-37.6,18.3-37.5Z"/>
            <path class="cls-5" d="m272.6,44.3c6.1-8.9,14.2-16.3,23.1-22.4,4.9-3.6,12.2-1.4,14.2,4.4,1.8,4.9-.6,10.3-5.5,12.1-11.2,4.2-21.7,10.9-29.4,20.1-8.1,9.6-13.5,21.8-14.8,34.6-2.3-16.9,2.6-34.8,12.4-48.8h0Z"/>
            <path class="cls-5" d="m292.6,83.1l27.3,79.2c2.9,8.5,12.2,13,20.7,10.1l79.2-27.3c8.5-2.9,13-12.2,10.1-20.7l-10-29.1,28-9.6,10,29.1c2.9,8.5,12.2,13,20.7,10.1l79.2-27.3c8.5-2.9,13-12.2,10.1-20.7l-27.3-79.2c-2.9-8.5-12.2-13-20.7-10.1l-79.2,27.3c-8.5,2.9-13,12.2-10.1,20.7l10.7,31.2-28,9.6-10.7-31.2c-2.9-8.5-12.2-13-20.7-10.1l-79.2,27.3c-8.5,2.9-13,12.2-10.1,20.7Zm160-36.8c-2.9-8.5,1.6-17.8,10.1-20.7l46.4-16c8.5-2.9,17.8,1.6,20.7,10.1l16,46.4c2.9,8.5-1.6,17.8-10.1,20.7l-46.4,16c-8.5,2.9-17.8-1.6-20.7-10.1l-16-46.4h0Zm-138,47.5c-2.9-8.5,1.6-17.8,10.1-20.7l46.4-16c8.5-2.9,17.8,1.6,20.7,10.1l16,46.4c2.9,8.5-1.6,17.8-10.1,20.7l-46.4,16c-8.5,2.9-17.8-1.6-20.7-10.1,0,.1-16-46.4-16-46.4Z"/>
            <path class="cls-5" d="m438.9,161.9c3.3,9.5,13.7,14.6,23.2,11.3s14.6-13.7,11.3-23.2l-1.3-3.7,17.4-6,1.3,3.7c6.6,19.1-3.6,39.9-22.7,46.5s-40-3.6-46.5-22.7l-1.3-3.7,17.4-6,1.2,3.8h0Z"/>
          </g>
        </g>
      </g>
    </g>
  </g>
</svg>