<?xml version="1.0" encoding="utf-8"?>
<!-- Generator: Adobe Illustrator 28.0.0, SVG Export Plug-In . SVG Version: 6.00 Build 0)  -->
<svg version="1.1" id="Capa_2_00000147178598182842943860000018436036855805489286_"
	 xmlns="http://www.w3.org/2000/svg" xmlns:xlink="http://www.w3.org/1999/xlink" x="0px" y="0px" viewBox="0 0 255 255"
	 style="enable-background:new 0 0 255 255;" xml:space="preserve">
<style type="text/css">
	.st0{fill:#3972B5;}
	.st1{fill:#FFFFFF;}
</style>
<circle class="st0" cx="127.5" cy="127.5" r="127.5"/>
<g>
	<path class="st1" d="M206.3,65.4c-7.9-3.2-15.9-3.3-23.7,0.3c-4.7,2.1-9.6,3.8-14.6,4.9c-8.6,1.9-17.4,4.2-24.7-3.5
		c-0.2-0.3-0.9-0.2-1.3-0.2c-0.8,1.5,0.5,2.6,0.7,3.8c0.4,2.2-0.4,3.6-2.6,4c-3.9,0.7-7.6-0.3-11-2.3c-0.6-0.4-1.5-1-0.9-2
		c0.6-0.8,1.4-1.5,2.5-0.8c5.3,3.4,4.5-1.4,4.7-3.8c0.2-2.8-1.1-5.3-4.2-5.9c-3.6-0.7-6.6,0.2-8.5,3.6c-3.5,6.1-0.4,13,7.1,15.8
		c5.8,2.2,11.8,1.7,17.8,0.9c12.1-1.6,23.7-4.9,35.2-8.8c2.6-0.9,3.5-1.1,3.1,2.4c-0.7,5.5,5,9.5,9.9,7.3c1.4-0.6,2.1-1.6,2.3-3
		c0.2-1.6-1-1.3-2-1.3c-2.4-0.1-1.4-1.3-0.6-2.1c1.7-1.5,3.7-2.6,5.9-1.6c2.8,1.3,2.5,4.1,2.6,6.5c0.1,2.3-1.2,3.7-3.4,4.3
		c-4,1.1-8,0.3-11.9-0.5c-10.5-2.2-20.9-2.9-31.5,0.1c-4.9,1.4-10.2,1.5-15.3,2.3c-10.2,1.6-18.7-3.3-27.7-6.5
		c-1.6-0.6-3.3-2.7-5.3-0.8c0.4,1.1,0.2,2-1.2,1.9c-1.2-0.1-2.4-0.7-3.2,0.8c0.2-1.8,2.6-1,3.2-2.6c-0.3-1.1-0.6-2.2-1-3.3
		c7,0.3,7.9-1,4.9-7.2c-1.2-2.4-2.5-4.7-4.1-6.9c-2.6-3.5-2.8-6.8,0.4-10.3c-3.1-0.5-5.9-0.6-8.6-1.4c-6-1.8-11.2-0.3-15.9,3.4
		c-3.5,2.8-7.4,4.6-11.8,4.8c-4.4,0.3-4.1,3.4-3.6,6.1c0.6,3.3,3.2,2.9,5.5,2c1.9-0.7,3.7-1.3,5.8-0.7c1.8,0.5,3.1,1.3,2.8,3.4
		c-0.3,2.4-2.1,2.4-3.8,2c-3.7-0.9-7.4-1.8-11.1-2.8c-1.8-0.5-3.2-1.5-3.8-3.6c-0.5-1.8-1.3-3.6-3.7-3.3c-1.4,0.1-2.5,0.9-2.9,2.3
		c-0.6,2,0.2,3.6,1.6,4.9c3.3,2.9,7.2,3.9,11.5,4.1c2.3,0.1,4.8-0.3,7,1.9c-2.2,0.7-3.9,1.2-5.7,1.7c-2.4,0.6-2.7,2.3-2.5,4.2
		c0.1,2.3,2.1,1.7,3.4,1.8c2.8,0.1,5.7-0.2,8.5,0.1c1.7,0.2,3.9-2.2,4.9-0.2c1.1,2.4-1.4,4.1-3.1,5.7c-0.4,0.3-0.8,0.6-1.2,0.9
		c-0.6,0.5-1.6,0.8-1.2,1.9c0.3,0.9,1.2,1,2,1.2c1,0.2,2.4-1.4,2.8,0.6c0.3,1.7-0.9,2.9-2.2,3.6c-3.9,1.9-7.7,1.6-11.4-0.6
		c-4.5-2.7-8-6.5-11.2-10.6c-3.3-4.4-6.9-8.6-11.6-11.6c-2.5-1.6-5.1-2.7-7.7,0c-0.8,0.9-1.5,2.1-1,3.2c0.6,1.6,2-1,3,0.4
		c0,1.5-2,3-0.6,5.2c1.6-1.2,3.6-3.7,5.3-1.4c2.3,3.1-3.2,3.6-2.8,6.5c1.4,0.8,4.3-1.2,4.6,2.2c0.3,4-2.4,4.8-5.7,5.1
		c3.3,4.1,4.8,4.8,7.6,3.2c1.7-1,3-2.3,4.7-0.2c1.5,1.9,1,3.7-0.4,5.4c-0.9,1.1-2.4,2.3-1.6,3.9c1,2.1,2.9,0.4,4.4,0.7
		c1.6,0.3,4.9-0.2,3.5,3.3c-0.4,0.9-1.2,1.5-0.2,2.4c1.2,1.2,2.1,0.1,3-0.5c0.9-0.6,1.4-2,3-1.1c-0.1,0.4-0.2,0.9-0.4,1.3
		c-0.4,1.2-2.9,2-0.7,3.6c1.5,1.1,2.9,0,4-1s1.9-2.3,2.9-3.4c0.5-0.6,1.2-1.4,2-0.9c0.6,0.4,1,1.3,1.1,2.1c0,1-0.4,1.9-0.6,2.9
		c-0.2,0.8-0.9,1.5-0.1,2.3c0.9,0.8,1.8,0.5,2.8,0.2c1.6-0.6,2.7-1.9,3.8-3.2c1.4-1.6,1.7-5.6,4.5-4.2c2.4,1.2,1.1,4.8,0.6,7.3
		c-0.4,2-1.6,3.6-2.9,5.2c-3.6,4.2-8.2,6.7-13.3,8.5c-4.2,1.5-8.6,2.5-12.9,3.9c-2.8,0.9-6.7,7.7-5.2,9.3c2.7,2.8,4.2-1.3,6.4-1.6
		c0.3,0,0.6,0,0.8-0.1c1.3,1-1.5,3.4,0.5,3.2c2.7-0.3,5.6,1.4,7.9-0.4c4.1-3.1,8.9-4.4,13.7-5.8c3.1-0.9,5.8-2.3,6.9-5.8
		c1.4,1.8-0.2,3.8,1.2,5.3c3.3-2.6,0.7-6.2,1.4-9.4c2.4,1.6,2.8,4.1,4.7,5.8c-0.6-6,1.6-10.9,5.3-15.1c1.3-1.5,2.7-4.2,5.1-2.5
		c2.8,2-0.1,3.7-0.9,5.4c-0.1,0.2,0.2,0.5,0.4,0.8c2.3-0.4,3.8-1.8,4.9-3.8c0.4-0.8,1-1.5,1.9-0.9c0.4,0.3,0.6,1.1,0.8,1.7
		c0.4,1.3-1.8,2.1-0.7,3.5c4.1-0.5,5.9-3.7,7.9-6.6c2.4,1.9,0.4,3.9,0.8,6c3.1,0.3,5.9-0.1,8.1-2.6c0.5-0.6,0.8-1.7,1.9-1.1
		c0.8,0.5,0.8,1.4,0.7,2.2c-0.7,4.1,1.8,1.7,3.2,1.6c1.4-0.1,2.2-0.6,2.7-1.3c-0.2,1.1-0.5,2.2-0.9,3.3c-4.1,5.8-9.5,9.6-16.8,10.5
		c-3.5,0.4-6.4,1.8-7.9,5.3c-0.3,0.8-1.4,1.7-0.4,2.7c0.9,0.9,1.8-0.1,2.7-0.3c1.1-0.2,1.6-3.2,3.4-0.8c3.1,4.2,4.8-1.2,6.9-1
		c2.7,0.2,4.8,4.5,8.2,1.2c1.1-1,2.4-1.9,3.4-2.9c2.5-2.4,5.3-4.7,7.4-7.4c4-5.2,9.2-8.7,15.1-11c4.8-1.9,5.8-5.4,6-9.8
		c0.1-4.7-2.1-8-6.1-10c-3.4-1.7-7-1.9-10.7-1.5c-0.6,0-1.1,0.1-1.6,0.2c1.3-1.1,2.7-2.1,4.3-3.1c5.1-1.9,9.8-0.6,13.1,3.3
		c5.4,6.3,5.3,13.7,2.7,21.2c3.2,0.5,3.6-3.4,5.3-3.9c3.9,1.7-2.1,4.8,1.5,5.8c3.8,1,5-2.6,5.9-5.6c2.9,1.7,0.3,4.2,1.2,5.8
		c3.5,1.1,4-4.5,7.7-3.2c-1,2.7-3.2,4.1-5.2,5.3c-4.1,2.5-8.8,3.8-13.3,5.5c-5.1,1.9-10.5,3.4-14.5,7.5c-1.2,1.2-3.2,2.7-1.6,4.6
		c1.3,1.6,3.1,0.2,4.6-0.4c1.5-0.6,3.7-2.6,4.4-1.5c3.8,6.8,6.3,1.6,9.2-0.6c1.6,1.2,1.8,4.5,4.9,4.2c1.7-0.2,2.9-1.6,3-3
		c0.1-3.3,2.5-4.4,4.7-5.8c7.2-4.8,14.5-9.4,21.6-14.4c5.2-3.6,5.2-5,1.1-9.8c-1.7-2-3.2-4.3-4.5-6.5c-2.1-3.6-2.1-6.5,1.8-9.4
		c5-3.7,8.6-8.8,10.1-15C216.8,74.7,213.9,68.5,206.3,65.4L206.3,65.4z"/>
	<path class="st1" d="M206.2,179.5c-2.1-2.4-4.5,1.7-7.5,2c0.6-1.9,2.8-3.5,1.1-5.4c-1.8-2-4.1-0.8-6.1-0.3
		c-1.6,0.4-3.7,2.2-4.5,1.7c-7.4-4.9-10.8,1-15,5.1c-3.2,3.1-6.1,6.6-11,8.6c0.4-1.3,0.5-2,0.7-2.6c2.2-7.5,8.8-10.8,14.3-15.4
		c5.4-4.6,9.4-11.5,18.3-9.7c0.9,0.2,2.2-0.4,1.9-1.7c-0.3-1.3-1.6-0.9-2.5-0.9c-2.1-0.1-4.1,0.7-6.2-0.1c0.1-2.3,3-4.6,0.2-6.4
		c-2.3-1.5-3.9,1-5.7,1.9c-0.1,0.1-0.3,0.2-0.4,0.3c-4,5-9.7,5.6-15.5,6.2c-3.3,0.4-6.9,0.6-9.7,3.7c5.5,0.7,10.4-1.9,16.2-0.8
		c-5.6,5.1-6.7,13.8-15.2,15.8c0-1,0-1.4,0-1.9c0-1.5,1.8-3.4-0.3-4.5c-1.9-1-2.9,1.3-3.9,2.4c-4.6,4.9-9.3,9.6-15.4,12.4
		c-1.3,0.6-3.3,2.5-4.2,0.6c-1-2,0.5-4.1,2.7-5.2c0.9-0.4,1.9-0.5,2.9-0.9c3.1-1.1,5.9-2.4,6.9-5.9c0.3-1.2-0.5-2.5-1.7-2.8
		c-3.7-1-6.6,0.9-8.8,3.4c-3,3.4-6.7,5.9-10.3,8.6c-1.6,1.2-3.8,3.8-5.4,1.8c-1.6-1.8,0.1-4.7,1.5-6.8c0.3-0.5,1-0.9,1.5-1.3
		c6.6-5.1,12.1-11.4,16.9-18.2c1.6-2.3,3.1-4.8,4.3-7.3c0.7-1.3,0.7-3-0.6-4.1c-1.3-1.1-2.9-0.9-4.2-0.1c-1.5,1-3,2.1-4.3,3.4
		c-6.5,6.7-12,14.3-15.8,22.9c-1.5,3.4-3.6,6-6.7,7.7c-2.8,1.6-6.6,5.3-8.5,3c-2-2.4,1.8-6.1,4-8.8c2.2-2.7,2.5-2.4,5.2-0.9
		c2,1.1,3.9,0.2,4-2.1c0.1-3.1-2.2-4-4.8-3.4c-3.7,0.9-6.4,3.4-9,6c-3.9,3.9-8.2,7.3-13.4,9.4c-0.9,0.4-2.1,0.8-2.8-0.1
		c-0.3-0.5-0.1-1.6,0.2-2.3c1.5-3.8,3.8-7,7.2-9.3c0.5-0.3,1.9-1.4,1.8-0.4c-0.2,2.8,1,2.9,2.9,2.1c1.4-0.6,1.8-1.9,1.3-3.4
		c-0.6-1.9-2.1-2.4-3.9-2.3c-4.8,0.4-12.8,8.1-13.2,12.9c-0.5,4.6,2,6.9,6.5,6.1c3.6-0.6,6.3-2.7,9.2-4.8c1.3,3.5,3,5.9,7.4,4.8
		c3.3-0.8,5.9-2.7,9.1-4.6c0.5,4,2.1,6.4,6.2,5.6c3.4-0.7,5.5-3.6,8.4-5.1c1,5.5,3,6.6,7.9,4.4c6.2-2.8,10.4-8.1,15.8-12.1
		c1,2.5-0.5,3.8-2.2,4.9c-2.1,1.4-3.9,3.1-5.2,5.3c-0.9,1.5-1.7,3,0,4.5c1.6,1.4,3.1,0.8,4.5-0.1c3-1.9,4.6-4.8,5.2-8.1
		c0.5-2.4,1.7-3.6,4.1-3.4c0,3.4-4.2,6.8-0.6,9.3c3.4,2.4,5.6-2.2,8.4-3.6c1.7,5,4.1,5.9,8.5,3.3c3.8-2.2,6.9-5.2,8.8-9.3
		c1.9-4.3,5.9-4.8,9.6-5.8c-2.1,3.4-4.6,6.3-6.9,9.3c-0.9,1.1-2.6,2.4-1.2,3.8c1.4,1.5,2.7-0.4,3.8-1.2c3.3-2.6,6.1-6,11.2-8
		c-1.7,2.9-2.9,4.8-4,6.8c-0.7,1.3-1.3,2.8,0.1,4.1c1.2,1.2,2.5,0.4,3.6-0.2c4.5-2.6,7.9-6.2,9.9-11.3c-3.2,2.8-6.4,5.5-10.5,9
		C204.1,185.7,209.2,183,206.2,179.5L206.2,179.5z"/>
	<path class="st1" d="M79.5,194.6c-0.9,0.5-1.7,1.1-2.5,1.6c-8.2,5-17,7.4-26.6,6.5c-5.2-0.5-7-4-4-8.3c1.3-1.9,3.1-3.5,4.9-4.9
		c6.7-5.6,14.2-9.9,21.9-13.9c1.7-0.9,3.8-1.2,4.6-3.4c-1.6-1.8-3.3-1-5.1-0.5c-2.1,0.7-4.1,1.3-6.2,1.7c-2,0.4-4.4,0.6-5.4-1.4
		c-1.2-2.2,1-3.8,2.5-4.9c9.4-7.1,20.2-10.4,31.8-11.8c0.2,1.9-1.2,3.2-0.1,5c2.3-1.8,6.7-2.1,5.6-6.3c-1-3.8-4.9-2.7-7.7-2.5
		c-6.4,0.4-12.4,2.3-18.3,4.7c-5.3,2.1-10.4,4.6-14.2,8.9c-4.2,4.8-3.6,8.4,1.9,11.9c-2.8,1.6-5.3,2.8-7.7,4.3
		c-5,3.1-9.8,6.5-12.5,11.9c-2.7,5.3-0.9,10.8,4.6,12c12.7,2.7,24.4-0.2,34.5-8.6c0.7-0.6,1.8-1.3,0.8-2.4
		C81.3,193.3,80.4,194.1,79.5,194.6L79.5,194.6z"/>
</g>
</svg>
