<?xml version="1.0" encoding="UTF-8"?>
<svg id="Capa_2" data-name="Capa 2" xmlns="http://www.w3.org/2000/svg" xmlns:xlink="http://www.w3.org/1999/xlink" viewBox="0 0 841.89 1190.55">
  <defs>
    <style>
      .cls-1, .cls-2 {
        opacity: .5;
      }

      .cls-3 {
        fill: none;
      }

      .cls-3, .cls-2, .cls-4, .cls-5 {
        stroke-width: 0px;
      }

      .cls-6 {
        clip-path: url(#clippath);
      }

      .cls-2, .cls-4 {
        fill: #e73e26;
      }

      .cls-7 {
        opacity: .36;
      }

      .cls-5 {
        fill: #ffd741;
      }
    </style>
    <clipPath id="clippath">
      <rect class="cls-3" width="841.89" height="1190.55"/>
    </clipPath>
  </defs>
  <g id="Capa_1-2" data-name="Capa 1">
    <g class="cls-6">
      <g>
        <rect class="cls-5" width="841.89" height="1190.55"/>
        <g class="cls-7">
          <path class="cls-2" d="m155.42,561.91c17.55,12.63,43.42,10.23,60.33-3.24,16.91-13.47,25.06-36.12,23.79-57.7-.31-5.32-1.02-11.15,1.99-15.55,3.64-5.33,11.23-6.21,17.58-5.02,24.35,4.6,38.27,29.47,51.15,50.64,9.9,16.27,21.44,32.18,37.49,42.44,16.05,10.25,37.48,13.87,54.25,4.85,24.14-12.98,74.95-67.09,76.57-94.45,4.37-73.36-87.86-58.93-83.23-85.94,5.08-29.65,156.23-160.41,165.85-188.91,26.81-79.39-76.5-146.19-101.31-153.28-65.15-18.6-71.69,47.06-88.57,27.54-47.99-55.47,80.37-77.35,23.95-178.64-28.75-51.6-129.35-103.79-188.25-99.31-58.9,4.48-111.61,52.79-121.19,111.08-8.27,50.29-3.19,90.97-23.4,137.75-19.54,45.22-54.58,80.98-100.81,97.99-10.92,4.02-22.27,8.25-30.35,16.63-8.23,8.55-12.06,20.49-13.55,32.27-4.21,33.48,8.94,67.63,30.58,93.53,21.64,25.89,51.09,44.25,81.95,57.88,37.08,16.37,81.23,30.52,96.88,67.91,9.61,22.98,5.5,49,4.63,73.89-.86,24.89,3.45,53.09,23.67,67.63Z"/>
          <g class="cls-1">
            <path class="cls-4" d="m740.67,560.61c-.55,1.53-2.07,2.47-3.68,2.27-34.97-4.35-78.24-9.76-105.28-30.08-13.14-9.87-3.13-43.87-.55-56.61,3.31-16.33,7.91-32.54,13.46-48.31.53-1.52,2.05-2.48,3.65-2.3,24.86,2.78,52.06,10.23,73.68,20.91,16,7.91-1.14,51.57-10.39,74.99-.6,1.53-2.21,2.42-3.83,2.13-11.92-2.14-23.69-4.48-35.28-7.85-1.83-.53-2.86-2.46-2.34-4.29,2.54-8.91,4.7-17.84,6.23-26.95.33-1.97,2.22-3.28,4.17-2.83.02,0,.04.01.07.02,1.62.38,2.76,1.87,2.66,3.53-.36,6.07,1.3,11.89,3.88,19.78,3.17,9.7,18.48,8.18,18.15-2.57-.23-7.47,1.46-13.18,1.13-21.11-.23-5.52,1.32-12.15-4.14-14.68-11.37-5.27-22.36-7.2-34.81-8.15-6.18-.47-10.34,5.37-10.72,10.85-1.19,17.21-5.98,33.18-10.99,49.58-1.82,5.96,2.39,11,7.62,12.96,19.91,7.46,40.39,10.33,61.22,14.08,5.88,1.06,10.85-1.77,12.73-7.48,7.58-23.11,27.52-87.51.07-107.3-6.08-4.38-5.37-6.64-.02-5.63,15.38,4.26,30.5,9.32,45.08,16.08,3.74,1.74,5.66,5.96,4.42,9.9-11.49,36.55-23.23,73.02-36.17,109.08Z"/>
            <path class="cls-4" d="m695.39,640.08c-.75-.24-1.23-.97-1.16-1.75,1.56-17.06,3.51-38.17,12.95-51.62,4.59-6.54,21.27-2.21,27.49-1.16,7.99,1.35,15.93,3.33,23.68,5.78.75.24,1.24.96,1.18,1.74-.96,12.12-4.15,25.46-9,36.13-3.59,7.9-25.07.26-36.6-3.87-.75-.27-1.21-1.03-1.09-1.83.85-5.82,1.8-11.58,3.26-17.26.23-.9,1.15-1.43,2.05-1.2,4.37,1.09,8.74,2,13.19,2.6.96.13,1.63,1.03,1.44,1.98,0,.01,0,.02,0,.03-.16.79-.86,1.37-1.67,1.35-2.96-.08-5.76.82-9.55,2.2-4.66,1.69-3.68,9.11,1.53,8.78,3.62-.23,6.42.5,10.27.22,2.68-.2,5.92.45,7.07-2.24,2.38-5.61,3.15-10.98,3.41-17.04.13-3.01-2.77-4.94-5.44-5.04-8.38-.31-16.22-2.38-24.26-4.56-2.93-.79-5.3,1.33-6.17,3.9-3.31,9.79-4.38,19.78-5.88,29.96-.42,2.87,1.03,5.25,3.84,6.07,11.35,3.32,42.95,11.99,52.13-1.66,2.03-3.02,3.14-2.71,2.74-.1-1.83,7.54-4.05,14.96-7.1,22.15-.78,1.85-2.81,2.84-4.74,2.3-17.94-5.01-35.84-10.14-53.56-15.86Z"/>
            <path class="cls-4" d="m762.58,572.65c-1.24-.57-1.92-1.91-1.64-3.24,6.1-28.96,13.67-64.8,32.57-86.01,9.19-10.31,36.94.46,47.42,3.52,13.44,3.92,26.68,8.91,39.49,14.66,1.23.55,1.93,1.89,1.67,3.22-4.07,20.61-12.22,42.86-22.68,60.21-7.74,12.84-43.08-4.58-62.04-13.97-1.24-.61-1.87-2.02-1.51-3.35,2.63-9.82,5.41-19.51,9.05-28.98.57-1.49,2.26-2.22,3.75-1.65,7.28,2.75,14.6,5.19,22.12,7.1,1.62.41,2.59,2.09,2.08,3.69,0,.02-.01.04-.02.05-.43,1.33-1.76,2.18-3.14,1.98-5.06-.73-10.05.25-16.83,1.86-8.34,1.97-8.14,14.9.87,15.37,6.27.33,10.93,2.15,17.59,2.43,4.64.2,10.08,1.96,12.58-2.43,5.21-9.15,7.6-18.21,9.27-28.56.83-5.14-3.77-9.03-8.33-9.73-14.32-2.2-27.36-7.33-40.72-12.68-4.86-1.95-9.37,1.22-11.38,5.46-7.64,16.14-11.48,33.08-16.09,50.25-1.3,4.85.72,9.21,5.37,11.18,18.81,7.97,71.32,29.18,89.81,7.6,4.1-4.78,5.94-4.03,4.72.38-4.65,12.58-9.95,24.87-16.63,36.6-1.72,3.01-5.39,4.32-8.59,3-29.79-12.19-59.48-24.58-88.76-37.94Z"/>
          </g>
          <path class="cls-2" d="m371.65,1363.36l-77.26-47.47s-35.56-20.37-57.87.4c-44.38,41.3-50.65,51.92-59.53,62.91-12.51,13.69-5.28,28.8,20.81,53.89,24.61,26.45,175.13,180.1,227.19,131.64,37.06-34.49,213.89-207.27,280.15-346.3,0,0,32.02-78.04-41.96-157.53,0,0-197.63-232.87-345.42-304.63,0,0-7.16-10.63-77.38,54.73-70.22,65.36-344.76,347.28-344.76,347.28,0,0-34.3,36.48,3.82,77.44,31.32,33.65,106,119.76,106,119.76,0,0,15.08,13.27,26.29,2.83,6.83-6.35-3.05-34.56-3.05-34.56,0,0-20.63-146.35,56.2-225.14,0,0,187.07-208.7,278.4-205.43,70.14,2.52,210.88,184.89,210.88,184.89,0,0,54.82,74.17,2.65,122.72l-130.86,135.93s-46.11,48.69-74.3,26.62Z"/>
        </g>
        <rect class="cls-3" width="841.89" height="1190.55"/>
      </g>
    </g>
  </g>
</svg>