<?xml version="1.0" encoding="UTF-8"?>
<svg id="Capa_2" data-name="Capa 2" xmlns="http://www.w3.org/2000/svg" xmlns:xlink="http://www.w3.org/1999/xlink" viewBox="0 0 301.94 66.55">
  <defs>
    <style>
      .cls-1 {
        fill: url(#Degradado_sin_nombre_14);
      }

      .cls-1, .cls-2, .cls-3, .cls-4, .cls-5, .cls-6, .cls-7, .cls-8, .cls-9, .cls-10, .cls-11, .cls-12, .cls-13, .cls-14, .cls-15, .cls-16, .cls-17, .cls-18, .cls-19, .cls-20 {
        stroke-width: 0px;
      }

      .cls-2 {
        fill: url(#Degradado_sin_nombre_11-8);
      }

      .cls-3 {
        fill: url(#Degradado_sin_nombre_11-2);
      }

      .cls-4 {
        fill: url(#Degradado_sin_nombre_14-2);
      }

      .cls-5 {
        fill: url(#Degradado_sin_nombre_15-2);
      }

      .cls-6 {
        fill: url(#Degradado_sin_nombre_11-3);
      }

      .cls-7 {
        fill: url(#Degradado_sin_nombre_14-3);
      }

      .cls-8 {
        fill: url(#Degradado_sin_nombre_16-3);
      }

      .cls-9 {
        fill: url(#Degradado_sin_nombre_11-5);
      }

      .cls-10 {
        fill: url(#Degradado_sin_nombre_14-4);
      }

      .cls-11 {
        fill: url(#Degradado_sin_nombre_11-9);
      }

      .cls-12 {
        fill: url(#Degradado_sin_nombre_15);
      }

      .cls-13 {
        fill: url(#Degradado_sin_nombre_16);
      }

      .cls-14 {
        fill: url(#Degradado_sin_nombre_11);
      }

      .cls-15 {
        fill: url(#Degradado_sin_nombre_11-10);
      }

      .cls-16 {
        fill: url(#Degradado_sin_nombre_11-7);
      }

      .cls-17 {
        fill: url(#Degradado_sin_nombre_15-3);
      }

      .cls-18 {
        fill: url(#Degradado_sin_nombre_11-6);
      }

      .cls-19 {
        fill: url(#Degradado_sin_nombre_11-4);
      }

      .cls-20 {
        fill: url(#Degradado_sin_nombre_16-2);
      }
    </style>
    <linearGradient id="Degradado_sin_nombre_14" data-name="Degradado sin nombre 14" x1="55.24" y1="12.11" x2="8.61" y2="55.06" gradientUnits="userSpaceOnUse">
      <stop offset="0" stop-color="#f3981b"/>
      <stop offset=".15" stop-color="#da8619"/>
      <stop offset=".48" stop-color="#9a5a15"/>
      <stop offset=".96" stop-color="#35130e"/>
      <stop offset="1" stop-color="#2c0d0e"/>
    </linearGradient>
    <linearGradient id="Degradado_sin_nombre_14-2" data-name="Degradado sin nombre 14" x1="61.61" y1="19.03" x2="14.98" y2="61.98" xlink:href="#Degradado_sin_nombre_14"/>
    <linearGradient id="Degradado_sin_nombre_14-3" data-name="Degradado sin nombre 14" x1="55.41" y1="12.29" x2="8.78" y2="55.24" xlink:href="#Degradado_sin_nombre_14"/>
    <linearGradient id="Degradado_sin_nombre_14-4" data-name="Degradado sin nombre 14" x1="58.64" y1="15.8" x2="12.01" y2="58.75" xlink:href="#Degradado_sin_nombre_14"/>
    <linearGradient id="Degradado_sin_nombre_15" data-name="Degradado sin nombre 15" x1="206.56" y1="7.6" x2="166.61" y2="46.07" gradientUnits="userSpaceOnUse">
      <stop offset="0" stop-color="#46a0d8"/>
      <stop offset=".18" stop-color="#3e8cbf"/>
      <stop offset=".57" stop-color="#2b597f"/>
      <stop offset="1" stop-color="#151d33"/>
    </linearGradient>
    <linearGradient id="Degradado_sin_nombre_15-2" data-name="Degradado sin nombre 15" x1="216.26" y1="18.56" x2="176.32" y2="57.03" xlink:href="#Degradado_sin_nombre_15"/>
    <linearGradient id="Degradado_sin_nombre_15-3" data-name="Degradado sin nombre 15" x1="214.78" y1="16.52" x2="175.22" y2="54.62" xlink:href="#Degradado_sin_nombre_15"/>
    <linearGradient id="Degradado_sin_nombre_16" data-name="Degradado sin nombre 16" x1="133.83" y1="15.99" x2="98.49" y2="53.54" gradientUnits="userSpaceOnUse">
      <stop offset="0" stop-color="#e8496a"/>
      <stop offset=".18" stop-color="#cf405f"/>
      <stop offset=".56" stop-color="#8f2a43"/>
      <stop offset="1" stop-color="#410f21"/>
    </linearGradient>
    <linearGradient id="Degradado_sin_nombre_16-2" data-name="Degradado sin nombre 16" x1="134.24" y1="16.38" x2="98.9" y2="53.93" xlink:href="#Degradado_sin_nombre_16"/>
    <linearGradient id="Degradado_sin_nombre_16-3" data-name="Degradado sin nombre 16" x1="125.91" y1="8.54" x2="90.56" y2="46.09" xlink:href="#Degradado_sin_nombre_16"/>
    <linearGradient id="Degradado_sin_nombre_11" data-name="Degradado sin nombre 11" x1="285.78" y1=".88" x2="253.2" y2="35.12" gradientUnits="userSpaceOnUse">
      <stop offset="0" stop-color="#01626b"/>
      <stop offset=".58" stop-color="#004b52"/>
      <stop offset="1" stop-color="#00393e"/>
    </linearGradient>
    <linearGradient id="Degradado_sin_nombre_11-2" data-name="Degradado sin nombre 11" x1="295.43" y1="10.07" x2="262.85" y2="44.31" xlink:href="#Degradado_sin_nombre_11"/>
    <linearGradient id="Degradado_sin_nombre_11-3" data-name="Degradado sin nombre 11" x1="296.72" y1="11.29" x2="264.14" y2="45.53" xlink:href="#Degradado_sin_nombre_11"/>
    <linearGradient id="Degradado_sin_nombre_11-4" data-name="Degradado sin nombre 11" x1="290.97" y1="5.82" x2="258.39" y2="40.06" xlink:href="#Degradado_sin_nombre_11"/>
    <linearGradient id="Degradado_sin_nombre_11-5" data-name="Degradado sin nombre 11" x1="294.01" y1="8.72" x2="261.43" y2="42.96" xlink:href="#Degradado_sin_nombre_11"/>
    <linearGradient id="Degradado_sin_nombre_11-6" data-name="Degradado sin nombre 11" x1="298.09" y1="12.6" x2="265.51" y2="46.84" xlink:href="#Degradado_sin_nombre_11"/>
    <linearGradient id="Degradado_sin_nombre_11-7" data-name="Degradado sin nombre 11" x1="299.62" y1="14.06" x2="267.04" y2="48.3" xlink:href="#Degradado_sin_nombre_11"/>
    <linearGradient id="Degradado_sin_nombre_11-8" data-name="Degradado sin nombre 11" x1="300.27" y1="14.67" x2="267.69" y2="48.91" xlink:href="#Degradado_sin_nombre_11"/>
    <linearGradient id="Degradado_sin_nombre_11-9" data-name="Degradado sin nombre 11" x1="302.75" y1="17.03" x2="270.17" y2="51.27" xlink:href="#Degradado_sin_nombre_11"/>
    <linearGradient id="Degradado_sin_nombre_11-10" data-name="Degradado sin nombre 11" x1="305.8" y1="19.94" x2="273.22" y2="54.18" xlink:href="#Degradado_sin_nombre_11"/>
  </defs>
  <g id="Capa_2-2" data-name="Capa 2">
    <g>
      <path class="cls-1" d="m19.29,44.04c1.07,0,2.14-.02,3.21,0,.45.01.67-.16.79-.58.42-1.37.88-2.74,1.3-4.11.1-.33.26-.46.61-.45,1.11.02,2.22,0,3.33,0s2.22.02,3.33,0c.37,0,.55.11.67.47.45,1.38.95,2.75,1.4,4.14.13.41.34.54.76.53,1.21-.03,2.41,0,3.62,0,.63,0,.65-.02.44-.62-.86-2.44-1.72-4.87-2.59-7.3-1.55-4.37-3.11-8.75-4.65-13.12-.11-.3-.18-.57-.61-.56-1.6.02-3.19.01-4.79,0-.34,0-.49.11-.49.47,0,.67-.15,1.31-.37,1.94-.52,1.48-1.04,2.97-1.55,4.46-1.63,4.7-3.26,9.39-4.89,14.09-.22.62-.19.66.47.66Zm6.79-9.68c.54-1.72,1.1-3.43,1.63-5.16.29-.94.54-1.89.83-2.94.79,2.91,1.73,5.67,2.61,8.52-1.68,0-3.29,0-4.9,0-.41,0-.24-.24-.18-.43Z"/>
      <path class="cls-4" d="m45.64,28.27c0-.45-.12-.62-.59-.61-1.13.03-2.26.03-3.39,0-.44,0-.62.1-.61.58.02,5.08.02,10.16,0,15.23,0,.49.18.59.62.58,1.11-.02,2.22-.03,3.33,0,.53.02.65-.18.65-.67-.02-2.51,0-5.02,0-7.53s0-5.06,0-7.59Z"/>
      <path class="cls-7" d="m43.42,20.8c-1.5,0-2.59,1.07-2.59,2.55,0,1.56,1,2.59,2.51,2.59,1.55,0,2.6-1.06,2.59-2.6-.01-1.52-1.01-2.53-2.51-2.54Z"/>
      <path class="cls-10" d="m33.17,0v6.79c14.63,0,26.49,11.86,26.49,26.49s-11.86,26.49-26.49,26.49c-13.76,0-25.06-10.49-26.36-23.91H0c1.32,17.17,15.66,30.7,33.17,30.7,18.38,0,33.28-14.9,33.28-33.28S51.54,0,33.17,0Z"/>
    </g>
    <g>
      <g>
        <path class="cls-12" d="m187.25,22.71c-1.13-.42-2.3-.58-3.5-.59-1.72,0-3.45.01-5.17.09-.27.01-.37.11-.36.37,0,.17,0,.34,0,.51,0,6.89,0,13.78,0,20.67,0,.42.01.43.42.43.91,0,1.82,0,2.72,0,.25,0,.33-.1.33-.33,0-1.23,0-2.45,0-3.68h0c0-1.15,0-2.3,0-3.46q0-.51.5-.5c.1,0,.21,0,.31.01,1.61.06,3.2-.08,4.72-.68,1.64-.65,2.9-1.72,3.61-3.36.6-1.38.73-2.84.53-4.32-.34-2.54-1.72-4.26-4.12-5.17Zm.2,8.37c-.44.92-1.23,1.46-2.2,1.74-1.12.32-2.26.25-3.4.22-.19,0-.16-.14-.16-.26,0-1.2,0-2.4,0-3.59,0-1.18,0-2.36,0-3.54,0-.25.06-.34.33-.34.93,0,1.85-.1,2.77.07.9.16,1.7.51,2.29,1.24.46.55.66,1.2.74,1.9.1.89.02,1.77-.37,2.58Z"/>
        <path class="cls-5" d="m200.92,35.51c-.75-.51-1.57-.91-2.36-1.34-.61-.34-1.24-.66-1.71-1.21-.41-.47-.42-1.1-.06-1.6.32-.43.78-.62,1.28-.67,1.35-.14,2.65.1,3.87.69.44.22.52.17.53-.33,0-.75,0-1.5,0-2.25,0-.52-.07-.6-.56-.75-1.33-.41-2.7-.49-4.08-.38-.94.07-1.84.35-2.64.87-1.02.66-1.68,1.58-1.94,2.77-.2.91-.14,1.81.16,2.68.35,1.04,1.11,1.75,1.98,2.36.68.48,1.45.81,2.17,1.22.61.34,1.22.69,1.69,1.24.63.74.43,1.76-.42,2.21-.32.17-.67.24-1.02.26-1.59.09-3.06-.29-4.41-1.12-.23-.14-.29-.11-.29.16-.01.47,0,.94,0,1.4,0,0-.01,0-.02,0,0,.44.01.88,0,1.32-.01.33.13.52.43.64,2.09.81,4.22,1.01,6.37.32,1.62-.52,2.73-1.6,3.09-3.31.45-2.17-.19-3.92-2.05-5.19Z"/>
      </g>
      <path class="cls-17" d="m190.67,0v6.84c14.6,0,26.43,11.83,26.43,26.43s-11.83,26.43-26.43,26.43c-5.57,0-10.73-1.72-14.99-4.66l-4.05,5.52c5.4,3.77,11.96,5.99,19.04,5.99,18.38,0,33.28-14.9,33.28-33.28S209.05,0,190.67,0Z"/>
    </g>
    <g>
      <path class="cls-13" d="m110.37,0v6.84c14.6,0,26.43,11.83,26.43,26.43s-11.83,26.43-26.43,26.43c-5.57,0-10.73-1.72-14.99-4.66l-4.05,5.52c5.4,3.77,11.96,5.99,19.04,5.99,18.38,0,33.28-14.9,33.28-33.28S128.75,0,110.37,0Z"/>
      <path class="cls-20" d="m108.13,40.8c.98,1.74,2.44,2.85,4.37,3.35.7.18,1.42.2,2.15.19.72,0,1.44.03,2.16-.01.95-.06,1.89-.22,2.8-.49.43-.13.85-.28,1.22-.56.23-.17.37-.39.36-.69-.01-.18,0-.35,0-.53,0-3.18,0-6.35,0-9.53v-7.89c0-.75,0-1.51,0-2.26,0-.19,0-.19-.19-.19-1.34,0-2.67,0-4.01,0q-.2,0-.2.19c0,1.95,0,3.91,0,5.86,0,.15-.04.18-.18.18-.82,0-1.63,0-2.45,0-.42,0-.84.03-1.25.1-1.72.33-3.13,1.18-4.2,2.56-.89,1.15-1.37,2.46-1.4,3.92-.02.84,0,1.67,0,2.51,0,1.17.27,2.27.84,3.29Zm3.32-5.35c.07-.9.43-1.68,1.07-2.31.71-.72,1.59-1.08,2.59-1.1.51-.01,1.02,0,1.53,0,.12,0,.15.04.15.16,0,.7,0,1.4,0,2.11,0,.7,0,1.39,0,2.09,0,1.38,0,2.77,0,4.15,0,.18,0,.18-.19.18-.57,0-1.15.01-1.72-.01-1.44-.06-2.81-1.13-3.25-2.5-.13-.42-.2-.84-.2-1.28,0-.49-.02-.98.02-1.47Z"/>
      <path class="cls-8" d="m99.72,44.35c1.35,0,2.69,0,4.04,0q.19,0,.19-.18c0-3.32,0-6.64,0-9.97,0-3.33,0-6.66,0-10,0-.14-.04-.17-.17-.17-1.35,0-2.7,0-4.05,0-.13,0-.17.03-.17.16,0,6.66,0,13.33,0,19.99,0,.13.04.17.17.17Z"/>
    </g>
    <g>
      <path class="cls-14" d="m267.51,36.53c1.19-1.08,1.96-2.59,1.96-4.51,0-2.93-1.93-4.85-4.34-5.48v-.09c2.34-.89,3.57-2.75,3.57-4.8,0-1.8-.79-3.22-2.07-4.1-1.47-1.08-3.33-1.45-6.02-1.45-2.09,0-4.18.19-5.44.46v21.77c.99.14,2.53.27,4.59.27,3.8,0,6.26-.69,7.76-2.07Zm-8.49-17.37c.39-.1.99-.17,1.99-.17,2.44,0,3.8,1.09,3.8,3.09s-1.53,3.28-4.03,3.28h-1.76v-6.2Zm0,9.04h1.71c2.55,0,4.67,1.13,4.67,3.71s-2.1,3.74-4.55,3.74c-.79,0-1.37-.02-1.83-.11v-7.34Z"/>
      <path class="cls-3" d="m271.1,35.77v1.99h11.06v-2.69h-6.71v-.05l1.4-1.36c2.78-2.77,4.96-5.38,4.96-8.53,0-2.78-1.71-5.21-5.47-5.21-2.03,0-3.78.74-4.88,1.6l.85,2.32c.78-.58,1.96-1.3,3.4-1.3,2.07,0,2.91,1.28,2.91,2.89-.02,2.48-2.02,4.8-5.57,8.35l-1.94,2Z"/>
      <path class="cls-6" d="m268.66,0v6.84c14.6,0,26.43,11.83,26.43,26.43s-11.83,26.43-26.43,26.43c-5.57,0-10.73-1.72-14.99-4.66l-4.05,5.52c5.4,3.77,11.96,5.99,19.04,5.99,18.38,0,33.28-14.9,33.28-33.28S287.04,0,268.66,0Z"/>
      <rect class="cls-19" x="253.65" y="40.33" width="1.48" height="7.84"/>
      <path class="cls-9" d="m261.8,48.17v-3.83c0-.67-.17-1.17-.51-1.51-.4-.4-.89-.6-1.46-.6-.28,0-.55.05-.82.16-.27.11-.57.3-.9.58v-.59h-1.46v5.8h1.46v-2.33c0-.6.02-1,.06-1.18.08-.35.23-.62.44-.82.21-.2.46-.3.76-.3.23,0,.42.06.57.18.15.12.26.29.32.52s.09.69.09,1.38v2.54h1.44Z"/>
      <path class="cls-18" d="m266.84,48.92c-.24.12-.55.18-.94.18-.31,0-.57-.04-.79-.13-.22-.08-.41-.21-.55-.37h-1.6c.13.39.33.73.59,1.01.27.27.59.48.98.63.39.14.87.21,1.43.21,1.07,0,1.86-.31,2.39-.94.39-.46.59-1.18.59-2.16v-4.97h-1.45v.64c-.3-.28-.6-.48-.89-.6-.3-.12-.61-.18-.95-.18-.71,0-1.33.25-1.84.76-.57.56-.85,1.3-.85,2.22,0,.86.27,1.57.8,2.13s1.19.84,1.97.84c.36,0,.67-.06.95-.17.28-.11.55-.3.8-.55,0,.47-.05.8-.15.99-.1.19-.27.35-.5.47Zm.29-2.51c-.29.3-.67.45-1.12.45s-.85-.15-1.15-.46c-.31-.31-.46-.71-.46-1.19s.15-.85.45-1.16c.3-.31.68-.46,1.14-.46s.85.15,1.14.45.44.69.44,1.18-.15.89-.44,1.19Z"/>
      <rect class="cls-16" x="270.25" y="40.14" width="1.46" height="8.04"/>
      <polygon class="cls-2" points="277.75 39.22 276.02 39.22 274.75 41.31 275.8 41.31 277.75 39.22"/>
      <path class="cls-11" d="m278.84,45.42c0-.96-.29-1.73-.86-2.32-.57-.58-1.31-.88-2.23-.88-.86,0-1.58.29-2.15.88-.57.58-.86,1.32-.86,2.2s.29,1.58.86,2.16c.57.57,1.31.86,2.22.86.59,0,1.09-.1,1.52-.31.43-.21.79-.53,1.1-.96l-1.23-.58c-.39.38-.86.57-1.4.57-.45,0-.83-.12-1.12-.37-.29-.24-.47-.57-.54-.98h4.68v-.28Zm-4.62-.87c.16-.36.34-.61.53-.75.31-.23.66-.34,1.07-.34.37,0,.7.1.99.3.28.2.47.47.57.79h-3.16Z"/>
      <path class="cls-15" d="m281.67,43.54c.3,0,.63.18,1,.54l.9-.9c-.23-.31-.51-.55-.84-.71-.33-.17-.69-.25-1.06-.25-.55,0-1,.16-1.36.49-.35.33-.53.72-.53,1.18,0,.71.47,1.3,1.41,1.78l.49.25c.42.21.63.43.63.66,0,.12-.06.23-.18.32-.12.09-.27.14-.46.14-.18,0-.38-.06-.61-.18-.23-.12-.43-.28-.6-.48l-.9.98c.5.66,1.18.99,2.03.99.64,0,1.14-.17,1.52-.52.38-.34.57-.77.57-1.29,0-.39-.1-.72-.31-1.01-.21-.29-.6-.57-1.16-.85l-.53-.27c-.23-.11-.38-.2-.43-.27-.06-.07-.09-.14-.09-.22,0-.1.05-.19.14-.26.09-.07.22-.1.38-.1Z"/>
    </g>
  </g>
</svg>