<?xml version="1.0" encoding="UTF-8"?>
<svg id="Capa_2" data-name="Capa 2" xmlns="http://www.w3.org/2000/svg" xmlns:xlink="http://www.w3.org/1999/xlink" viewBox="0 0 51.72 51.72">
  <defs>
    <style>
      .cls-1 {
        fill: none;
      }

      .cls-1, .cls-2, .cls-3 {
        stroke-width: 0px;
      }

      .cls-2 {
        fill: #fff;
      }

      .cls-3 {
        fill: #990a2c;
      }

      .cls-4 {
        clip-path: url(#clippath);
      }
    </style>
    <clipPath id="clippath">
      <rect class="cls-1" x="6.68" y="6.44" width="38.37" height="42.52"/>
    </clipPath>
  </defs>
  <g id="Capa_2-2" data-name="Capa 2">
    <g id="Layer_2" data-name="Layer 2">
      <circle class="cls-3" cx="25.86" cy="25.86" r="25.86"/>
    </g>
    <g id="Capa_1-2" data-name="Capa 1-2">
      <g class="cls-4">
        <g>
          <path class="cls-2" d="m15.31,15.16c.38.04.77.09,1.15.09s.77-.06,1.15-.09v5.3c0,1.03-.03,2.56.11,3.53.14.91.26,1.49.81,2.15.49.56,1.07.8,1.74.8,1.42,0,2.19-.63,2.72-2.26.27-.82.27-2.95.27-3.86v-5.65c.2.04.41.06.61.06s.41-.02.61-.06v6.64c-.05,2.13-.03,4.07-1.62,5.41-.83.73-1.88.99-2.89.99-1.85,0-3.86-.71-4.42-3.13-.17-.73-.25-1.55-.25-2.3v-7.61h0Z"/>
          <path class="cls-2" d="m27.14,15.16h1.51c2.17,2.89,4.45,5.73,6.61,8.73v-8.73c.2.04.41.06.61.06s.41-.02.61-.06v12.8l-1.3-.02c-1.78-2.41-3.43-4.7-5.16-6.92l-1.67-2.13v9.03c-.2-.02-.41-.06-.61-.06s-.41.04-.61.06v-12.76h.01Z"/>
          <path class="cls-2" d="m28.63,37.41c-.47.21-1.31.37-1.85.8-.49.39-.6.95-.6,1.55,0,.69.22,1.49,1.03,1.49,1.14,0,1.38-1.1,1.42-2.03v-1.81Zm2.57,3.25c0,.69.21.91.95.88v.43c-.45.21-1.16.5-1.68.5-.88,0-1.55-.54-1.85-1.36-.49.86-1.42,1.36-2.39,1.36-1.53,0-2.67-.84-2.67-2.46,0-1.77,1.08-2.29,3.41-2.85.47-.11.95-.22,1.36-.49.22-.21.28-.45.28-.73,0-.9-.91-1.64-1.77-1.64-1.19,0-2.16.82-2.28,1.16h-.13l-.24-1.12c.88-.82,2.28-1.25,3.45-1.25,1.57,0,3.55.63,3.55,2.5v5.08h.01Z"/>
          <path class="cls-2" d="m32.82,41.81c0-.41.34-.77.76-.77s.77.34.77.77-.35.77-.77.77-.76-.35-.76-.77"/>
          <path class="cls-2" d="m14.82,9.72h.34c.49.71,1,1.4,1.48,2.14v-2.14s.09.01.14.01.09,0,.14-.01v3.14h-.29c-.4-.6-.77-1.16-1.16-1.7l-.37-.52v2.22s-.09-.01-.14-.01-.09,0-.14.01v-3.13h0Z"/>
          <path class="cls-2" d="m19.22,11.62l-.31-1.07-.32,1.07h.63Zm-.72.28c-.09.35-.17.63-.24.95-.06,0-.11-.01-.16-.01s-.11,0-.17.01l.98-3.17s.09.01.13.01.09,0,.13-.01l.96,3.18c-.1,0-.19-.02-.29-.02s-.2.01-.3.02c-.08-.34-.15-.65-.24-.96,0,0-.8,0-.8,0Z"/>
          <path class="cls-2" d="m23,12.33l-.08.39c-.21.14-.45.2-.68.2-.73,0-1.29-.6-1.29-1.54,0-1.19.62-1.74,1.37-1.74.23,0,.5.08.7.22-.03.15-.05.31-.08.47h-.05c-.13-.25-.35-.42-.57-.42-.57,0-.8.73-.8,1.4,0,.78.29,1.33.82,1.33.21,0,.46-.15.61-.34l.04.03h0Z"/>
          <path class="cls-2" d="m24.15,9.72c.09,0,.17.02.26.02s.17-.01.26-.02v3.14c-.09,0-.17-.02-.26-.02s-.17.01-.26.02v-3.14Z"/>
          <path class="cls-2" d="m26.37,11.42c0,.59.2,1.23.72,1.23s.77-.71.77-1.46c0-.59-.21-1.27-.72-1.27-.48,0-.76.48-.76,1.51m.7,1.5c-.76,0-1.27-.6-1.27-1.63,0-.91.5-1.65,1.35-1.65.98,0,1.27.92,1.27,1.63,0,.89-.51,1.65-1.35,1.65"/>
          <path class="cls-2" d="m29.51,9.72h.34c.49.71,1,1.4,1.48,2.14v-2.14s.09.01.14.01.09,0,.14-.01v3.14h-.29c-.4-.6-.77-1.16-1.16-1.7l-.37-.52v2.22s-.09-.01-.14-.01-.09,0-.14.01v-3.13h0Z"/>
          <path class="cls-2" d="m33.91,11.62l-.31-1.07-.32,1.07h.63Zm-.72.28c-.09.35-.17.63-.24.95-.05,0-.11-.01-.16-.01s-.11,0-.17.01l.98-3.17s.09.01.13.01.09,0,.13-.01l.96,3.18c-.1,0-.19-.02-.29-.02s-.2.01-.3.02c-.08-.34-.15-.65-.24-.96h-.8Z"/>
          <path class="cls-2" d="m36.26,12.51c.3,0,.55-.03.79-.06,0,.06-.02.13-.02.2s0,.13.02.2h-1.3v-3.12c.09,0,.17.02.26.02s.17-.01.26-.02v2.79h0Z"/>
          <path class="cls-2" d="m39.03,10.34v.29c0,.47.32.83,1.39.83.86,0,1.2-.31,1.2-.79v-.34h-2.59Zm2.85.66c-.04.73-.72,1.04-1.47,1.04-1.03,0-1.65-.55-1.65-1.25v-.96h3.12s0,1.17,0,1.17Z"/>
          <path class="cls-2" d="m41.88,14.47c-.06,0-.13-.02-.2-.02s-.13.01-.2.02c.04-.21.07-.44.06-.79h-.98v.36c0,.15.02.29.04.42-.06,0-.13-.02-.2-.02s-.13.01-.2.02c.02-.13.04-.27.04-.42v-.36h-1.16c0,.35.03.58.06.79-.06,0-.13-.02-.2-.02s-.13.01-.2.02v-1.31h3.12v1.31h.02Z"/>
          <path class="cls-2" d="m39.09,19.12c0,.3.03.55.06.79-.06,0-.13-.02-.2-.02s-.13.01-.2.02v-1.3h3.12c0,.09-.02.17-.02.26s0,.17.02.26h-2.79.01Z"/>
          <path class="cls-2" d="m39.98,22.08l1.07-.31-1.07-.32v.63Zm-.28-.72c-.35-.09-.63-.17-.95-.24,0-.06,0-.11,0-.16s0-.11,0-.17l3.17.98s0,.09,0,.13,0,.09,0,.13l-3.18.96c0-.1.02-.19.02-.29s0-.2-.02-.3c.34-.08.65-.15.96-.24,0,0,0-.8,0-.8Z"/>
          <path class="cls-2" d="m41.88,24.02v.34c-.71.49-1.4,1-2.14,1.48h2.14s0,.09,0,.14,0,.09,0,.14h-3.14v-.29c.6-.4,1.16-.77,1.7-1.16l.52-.37h-2.22s0-.09,0-.14,0-.09,0-.14h3.14Z"/>
          <path class="cls-2" d="m41.88,27.41c0,.09-.02.17-.02.26s0,.17.02.26h-1.3c-.25,0-.63,0-.86.02-.22.03-.37.06-.53.18-.14.11-.2.24-.2.39,0,.32.16.49.55.61.2.06.72.06.95.06h1.39s0,.09,0,.14,0,.09,0,.14h-1.63c-.52-.01-1,0-1.33-.36-.18-.19-.24-.42-.24-.65,0-.42.17-.86.77-.99.18-.04.38-.06.56-.06h1.87Z"/>
          <path class="cls-2" d="m41.29,31.8c.24-.07.4-.2.4-.39,0-.27-.19-.38-.45-.38-.62,0-.5,1.04-1.55,1.04-.59,0-1.01-.38-1.01-.91,0-.19.06-.39.2-.55.19.04.38.08.58.1v.06c-.32.05-.5.24-.5.47,0,.21.16.4.48.4.73,0,.47-1.02,1.57-1.02.53,0,.96.27.96.79,0,.25-.12.47-.22.54-.15-.04-.3-.08-.45-.11v-.05h-.01Z"/>
          <path class="cls-2" d="m9.89,32.03c0-.09.02-.17.02-.26s-.01-.17-.02-.26h1.3c.25,0,.63,0,.86-.02.22-.03.37-.06.53-.18.14-.11.2-.24.2-.39,0-.32-.16-.49-.55-.61-.2-.06-.72-.06-.95-.06h-1.39s.01-.09.01-.14,0-.09-.01-.14h1.63c.52.01,1,0,1.33.36.18.19.24.42.24.65,0,.42-.17.86-.77.99-.18.04-.38.06-.56.06,0,0-1.87,0-1.87,0Z"/>
          <path class="cls-2" d="m9.89,29.4v-.34c.71-.49,1.4-1,2.14-1.48h-2.14s.01-.09.01-.14,0-.09-.01-.14h3.14v.29c-.6.4-1.16.77-1.7,1.16l-.52.37h2.22s-.01.09-.01.14,0,.09.01.14h-3.14Z"/>
          <path class="cls-2" d="m9.89,26.73c0-.09.02-.17.02-.26s-.01-.17-.02-.26h3.14c0,.09-.02.17-.02.26s.01.17.02.26h-3.14Z"/>
          <path class="cls-2" d="m13.01,24.79s.01.1.02.15c-1.07.29-2.1.6-3.14.92,0-.1.02-.2.02-.3s-.01-.2-.02-.3c.76-.17,1.51-.4,2.27-.61-.75-.23-1.51-.46-2.27-.64,0-.05.01-.11.01-.16s0-.11-.01-.16c1.04.33,2.06.67,3.14.96,0,.05-.02.1-.02.14"/>
          <path class="cls-2" d="m9.89,22.07c.06,0,.13.02.2.02s.13-.01.2-.02c-.04.21-.07.44-.06.79h.98v-.36c0-.15-.02-.29-.04-.42.06,0,.13.02.2.02s.13,0,.2-.02c-.02.13-.04.27-.04.42v.36h1.16c0-.35-.03-.58-.06-.79.06,0,.13.02.2.02s.13-.01.2-.02v1.31h-3.12v-1.31h-.02Z"/>
          <path class="cls-2" d="m11.37,21.18c.05-.36-.18-.54-.65-.54-.06,0-.13,0-.23.02-.38.05-.34.31-.34.52h1.23-.01Zm-1.47.52v-.73c0-.16,0-.41.09-.56.14-.2.34-.3.65-.3.45,0,.73.22.82.54.44-.19.86-.4,1.29-.61l.28-.13c0,.1-.02.21-.02.31s.01.21.02.31l-.96.41c-.12.05-.33.15-.51.22v.02h1.47c0,.09-.02.17-.02.26s.01.17.02.26h-3.14.01Z"/>
          <path class="cls-2" d="m10.48,18.54c-.24.07-.4.2-.4.39,0,.27.19.38.45.38.62,0,.5-1.04,1.55-1.04.59,0,1.01.38,1.01.91,0,.19-.06.39-.2.55-.19-.04-.38-.08-.58-.1v-.06c.32-.05.5-.24.5-.47,0-.21-.16-.4-.48-.4-.73,0-.47,1.02-1.57,1.02-.53,0-.96-.27-.96-.79,0-.25.12-.47.22-.54.15.04.3.08.45.11v.05h0Z"/>
          <path class="cls-2" d="m9.89,17.87c0-.09.02-.17.02-.26s-.01-.17-.02-.26h3.14c0,.09-.02.17-.02.26s.01.17.02.26h-3.14Z"/>
          <path class="cls-2" d="m12.75,16.25v-.29c0-.47-.32-.83-1.39-.83-.86,0-1.2.31-1.2.79v.34h2.59Zm-2.85-.66c.04-.73.72-1.04,1.47-1.04,1.03,0,1.65.55,1.65,1.25v.96h-3.12s0-1.17,0-1.17Z"/>
          <path class="cls-2" d="m11.8,13.08l-1.07.31,1.07.32v-.63Zm.28.72c.35.09.63.17.95.24,0,.05-.01.11-.01.16s0,.11.01.17l-3.17-.98s.01-.09.01-.13,0-.09-.01-.13l3.18-.96c0,.1-.02.19-.02.29s.01.2.02.3c-.34.08-.65.15-.96.24v.8Z"/>
          <path class="cls-2" d="m12.75,11.34v-.29c0-.47-.32-.83-1.39-.83-.86,0-1.2.31-1.2.79v.34h2.59Zm-2.85-.66c.04-.73.72-1.04,1.47-1.04,1.03,0,1.65.55,1.65,1.25v.96h-3.12v-1.17Z"/>
          <polygon class="cls-2" points="28.77 43.55 23.76 43.28 24.2 44.56 29.26 44.3 35.2 45.72 35.42 45.35 30.4 43.68 28.77 43.55"/>
          <path class="cls-2" d="m17.73,40.78c1.62,0,3.25-.08,4.52-.21-.04.26-.09.49-.09.75s.06.69.09.95c0,0-3.74-.11-3.39-.1.35,0-3.58.05-3.58.05,0,0,.25-11.67,0-12.81,0,0,.84.08,1.31.08s1.14-.08,1.14-.08c-.17.96,0,11.36,0,11.36"/>
        </g>
      </g>
    </g>
  </g>
</svg>